<?xml version="1.0" encoding="UTF-8"?>
<svg id="Layer_2" data-name="Layer 2" xmlns="http://www.w3.org/2000/svg" viewBox="0 0 278.42 448.47">
  <defs>
    <style>
      .cls-1 {
        fill: #ff9100;
      }
    </style>
  </defs>
  <g id="_圖層_1" data-name="圖層 1">
    <g>
      <g>
        <path d="M81.44,376.88v-.14c0-8.1,6.16-11.83,14.95-11.83,3.46,0,6.03.53,8.48,1.33.29.09.59-.12.59-.43h0c0-4.36-2.7-6.78-7.96-6.78-3,0-5.34.43-7.75,1.16-1.4.43-2.89-.36-3.34-1.76l-.99-3.02c-.45-1.38.26-2.88,1.62-3.38,3.34-1.23,6.92-2,11.99-2,5.74,0,9.9,1.52,12.52,4.15,2.77,2.77,4.01,6.85,4.01,11.83v18.81c0,1.5-1.21,2.71-2.71,2.71h-4.75c-1.5,0-2.71-1.21-2.71-2.71v-.2c0-.39-.47-.6-.76-.33-2.49,2.39-5.82,3.92-10.45,3.92-6.99,0-12.73-4.01-12.73-11.35ZM105.59,374.46v-1.58c0-.18-.1-.34-.27-.41-1.76-.76-4.01-1.26-6.45-1.26-4.5,0-7.27,1.8-7.27,5.12v.14c0,2.84,2.35,4.5,5.74,4.5,4.91,0,8.24-2.7,8.24-6.5Z"/>
        <path d="M124.83,377.02v-16.73c0-.47-.38-.85-.85-.85h-1.37c-1.22,0-2.21-.99-2.21-2.21v-4.57c0-1.22.99-2.21,2.21-2.21h1.49c.4,0,.73-.33.73-.73v-6.54c0-1.22.99-2.21,2.21-2.21h6.09c1.22,0,2.21.99,2.21,2.21v6.36c0,.5.41.91.91.91h5.6c1.22,0,2.21.99,2.21,2.21v4.57c0,1.22-.99,2.21-2.21,2.21h-5.6c-.5,0-.9.4-.9.9v14.95c0,2.42,1.04,3.6,3.39,3.6.85,0,1.65-.09,2.42-.27,1.41-.32,2.77.69,2.77,2.14v3.92c0,.84-.47,1.62-1.22,1.98-1.94.93-4.18,1.49-7.08,1.49-6.44,0-10.8-2.56-10.8-11.14Z"/>
        <path d="M147.84,369.2v-.14c0-10.59,8.1-19.31,19.45-19.31,5.12,0,8.83,1.26,11.81,3.47,1.76,1.3,1.99,3.84.51,5.44l-1.53,1.64c-1.26,1.36-3.32,1.52-4.82.43-1.67-1.21-3.55-1.92-6.04-1.92-5.26,0-9,4.64-9,10.1v.14c0,5.67,3.67,10.24,9.41,10.24,2.47,0,4.39-.74,6.2-2.02,1.44-1.02,3.42-.8,4.66.45l1.19,1.21c1.53,1.55,1.37,4.08-.33,5.44-3.02,2.42-6.72,3.98-12.21,3.98-11.14,0-19.31-8.58-19.31-19.17Z"/>
        <path d="M188.17,337.02h7.9c.72,0,1.31.59,1.31,1.31v13.95c0,1.16,1.38,1.73,2.23.93,2.11-1.99,4.8-3.46,8.64-3.46,7.96,0,12.59,5.26,12.59,13.77v22.7c0,.72-.59,1.31-1.31,1.31h-7.9c-.72,0-1.31-.59-1.31-1.31v-19.38c0-4.98-2.35-7.54-6.37-7.54s-6.57,2.56-6.57,7.54v19.38c0,.72-.59,1.31-1.31,1.31h-7.9c-.72,0-1.31-.59-1.31-1.31v-47.9c0-.72.59-1.31,1.31-1.31Z"/>
      </g>
      <path d="M35.32,338.3h5.49c1.31,0,2.37,1.06,2.37,2.37v14.91c0,1.35,1.1,2.45,2.45,2.45h15.33c1.35,0,2.45-1.1,2.45-2.45v-14.38c0-1.6,1.3-2.9,2.9-2.9h5.34c1.51,0,2.74,1.23,2.74,2.74v44.29c0,1.56-1.27,2.83-2.83,2.83h-5.71c-1.34,0-2.43-1.09-2.43-2.43v-15.14c0-1.35-1.1-2.45-2.45-2.45h-15.33c-1.35,0-2.45,1.1-2.45,2.45v14.84c0,1.5-1.22,2.72-2.72,2.72h-5.54c-1.49,0-2.71-1.21-2.71-2.71v-44.05c0-1.72,1.39-3.11,3.11-3.11Z"/>
      <path d="M48.78,436.99v-.14c0-8.1,6.16-11.83,14.95-11.83,3.46,0,6.03.53,8.48,1.33.29.09.59-.12.59-.43h0c0-4.36-2.7-6.78-7.96-6.78-3,0-5.34.43-7.75,1.16-1.4.43-2.89-.36-3.34-1.76l-.99-3.02c-.45-1.38.26-2.88,1.62-3.38,3.34-1.23,6.92-2,11.99-2,5.74,0,9.9,1.52,12.52,4.15,2.77,2.77,4.01,6.85,4.01,11.83v18.81c0,1.5-1.21,2.71-2.71,2.71h-4.75c-1.5,0-2.71-1.21-2.71-2.71v-.2c0-.39-.47-.6-.76-.33-2.49,2.39-5.82,3.92-10.45,3.92-6.99,0-12.73-4.01-12.73-11.35ZM72.93,434.56v-1.58c0-.18-.1-.34-.27-.41-1.76-.76-4.01-1.26-6.45-1.26-4.5,0-7.27,1.8-7.27,5.12v.14c0,2.84,2.35,4.5,5.74,4.5,4.91,0,8.24-2.7,8.24-6.5Z"/>
      <path d="M94.55,410.55h5.28c1.45,0,2.62,1.17,2.62,2.62v2.86c0,.47.63.62.85.21,1.81-3.39,4.42-5.71,8.37-6.26,1.38-.19,2.61.91,2.61,2.31v7.21c0,.76-.62,1.38-1.38,1.38h0c-6.99,0-10.46,4.22-10.46,13.08v11.09c0,1.44-1.17,2.61-2.61,2.61h-5.3c-1.44,0-2.61-1.17-2.61-2.61v-31.87c0-1.45,1.17-2.62,2.62-2.62Z"/>
      <path d="M121.17,410.55h8.06c.61,0,1.14.39,1.34.96l7.21,21.57c.25.74,1.3.74,1.55,0l7.32-21.71c.17-.49.63-.82,1.14-.82h8.3c.85,0,1.43.85,1.12,1.65l-13.29,34.02c-.4,1.03-1.39,1.7-2.49,1.7h-5.9c-1.1,0-2.09-.68-2.49-1.7l-13.18-33.74c-.36-.92.32-1.92,1.31-1.92Z"/>
      <path d="M160.07,429.3v-.14c0-10.59,7.54-19.31,18.34-19.31,12.39,0,18.06,9.62,18.06,20.14v.02c0,1.52-1.23,2.74-2.74,2.74h-21.08c-1.11,0-1.88,1.15-1.43,2.17,1.47,3.36,4.44,5.1,8.37,5.1,2.83,0,5.04-.71,7.3-2.39,1.05-.78,2.5-.71,3.48.16l2.1,1.86c1.25,1.1,1.31,2.97.07,4.09-3.29,2.98-7.61,4.73-13.09,4.73-11.14,0-19.38-7.82-19.38-19.17ZM184.39,426.19c1.01,0,1.72-.97,1.44-1.94-1.06-3.62-3.63-5.95-7.42-5.95s-6.16,2.12-7.41,5.54c-.42,1.14.46,2.35,1.68,2.35h11.71Z"/>
      <path d="M203.24,439.87l.75-1.16c1-1.54,3.03-2.04,4.63-1.14,3.14,1.76,6.27,2.67,8.95,2.67,3.04,0,4.43-1.11,4.43-2.77v-.14c0-2.28-3.6-3.05-7.68-4.29-5.19-1.52-11.07-3.94-11.07-11.14v-.14c0-7.54,6.09-11.76,13.56-11.76,3.5,0,7.24.88,10.57,2.45,1.84.86,2.58,3.09,1.6,4.86l-.69,1.26c-.88,1.6-2.86,2.26-4.52,1.48-2.66-1.24-5.18-1.95-7.17-1.95-2.56,0-3.87,1.11-3.87,2.56v.14c0,2.08,3.53,3.04,7.54,4.43,5.19,1.73,11.21,4.22,11.21,11v.14c0,8.23-6.16,11.97-14.19,11.97-4.16,0-8.72-1.11-12.89-3.55-1.72-1-2.25-3.25-1.16-4.92Z"/>
      <path d="M240.07,437.12v-16.68c0-.5-.4-.9-.9-.9h-1.32c-1.22,0-2.21-.99-2.21-2.21v-4.57c0-1.22.99-2.21,2.21-2.21h1.32c.5,0,.9-.4.9-.9v-6.37c0-1.22.99-2.21,2.21-2.21h6.09c1.22,0,2.21.99,2.21,2.21v6.37c0,.5.4.9.9.9h5.61c1.22,0,2.21.99,2.21,2.21v4.57c0,1.22-.99,2.21-2.21,2.21h-5.61c-.5,0-.9.4-.9.9v14.95c0,2.42,1.04,3.6,3.39,3.6.85,0,1.65-.09,2.42-.27,1.41-.32,2.77.69,2.77,2.14v3.92c0,.84-.47,1.62-1.22,1.98-1.94.93-4.18,1.49-7.08,1.49-6.44,0-10.8-2.56-10.8-11.14Z"/>
      <path d="M87.17,97.91c4.85-5.11,10.91-9.05,17.72-11.18s14.48-2.53,17.94,4.44c6.92,13.93-31.16,44.44-15.32,55.44,15.85,11.01,39.83-34.98,58.64-33.5,18.8,1.47-47.24,79.26-59.22,114.81-11.98,35.55-58.33,11.21-17.22-36.08,41.1-47.29-35.86-29.68-45.06,26.43-6.61,40.28-66.47-5.53,42.53-120.36Z"/>
      <path class="cls-1" d="M126.38,289.1c-64.33,0-116.67-52.34-116.67-116.67,0-32.12,13.08-75.02,33.33-109.29C67.09,22.42,96.69,0,126.38,0s59.29,22.42,83.34,63.13c20.25,34.27,33.33,77.17,33.33,109.29,0,64.33-52.34,116.67-116.67,116.67ZM126.38,10.95c-56.31,0-105.72,100.64-105.72,161.47s47.43,105.72,105.72,105.72,105.72-47.43,105.72-105.72S182.69,10.95,126.38,10.95Z"/>
      <path d="M213.57,166.66c-4.85,5.11-10.91,9.05-17.72,11.18-6.81,2.13-14.48,2.53-17.94-4.44-6.92-13.93,31.16-44.44,15.32-55.44-15.85-11.01-39.83,34.98-58.64,33.5-18.8-1.47,47.24-79.26,59.22-114.81,11.98-35.55,58.33-11.21,17.22,36.08-41.1,47.29,35.86,29.68,45.06-26.43,6.61-40.28,66.47,5.53-42.53,120.36Z"/>
      <path d="M3.11,398.41h5.49c1.31,0,2.37,1.06,2.37,2.37v14.91c0,1.35,1.1,2.45,2.45,2.45h15.33c1.35,0,2.45-1.1,2.45-2.45v-14.38c0-1.6,1.3-2.9,2.9-2.9h5.34c1.51,0,2.74,1.23,2.74,2.74v44.29c0,1.56-1.27,2.83-2.83,2.83h-5.71c-1.34,0-2.43-1.09-2.43-2.43v-15.14c0-1.35-1.1-2.45-2.45-2.45h-15.33c-1.35,0-2.45,1.1-2.45,2.45v14.84c0,1.5-1.22,2.72-2.72,2.72H2.71c-1.49,0-2.71-1.21-2.71-2.71v-44.05c0-1.72,1.39-3.11,3.11-3.11Z"/>
      <path d="M246.67,356.69c-.47-.47-1.21-.55-1.75-.16-2.33,1.69-5.02,2.76-8.2,2.76-5.95,0-10.43-3.46-10.43-8.97v-.09c0-3.71,1.88-6.4,5.34-8.19.36-.19.48-.63.26-.97-1.21-1.89-1.74-3.66-1.74-5.58v-.09c0-4.26,3.42-8.17,9.41-8.17,5.28,0,8.75,3.46,8.75,7.81v.09c0,3.89-2.31,6.28-5.76,7.8-.36.16-.46.63-.18.91l3.04,3.04c.25.25.68.21.86-.09.68-1.1,1.35-2.28,2.02-3.52.36-.67,1.19-.91,1.85-.55l2.6,1.43c.66.36.91,1.2.53,1.85-.84,1.49-1.75,3-2.75,4.44-.38.55-.33,1.28.14,1.75l2.61,2.61c.6.6.51,1.59-.18,2.08l-2.74,1.92c-.54.38-1.28.31-1.75-.16l-1.94-1.97ZM241.47,351.39l-5.09-5.16c-.18-.19-.53-.24-.75-.1-1.74,1.05-2.47,2.45-2.47,3.85v.09c0,2.18,1.82,3.64,4.35,3.64,1.32,0,2.62-.48,3.85-1.31.34-.23.4-.71.11-1ZM242.36,335.54v-.09c0-1.78-1.2-2.89-2.93-2.89-1.82,0-3.02,1.29-3.02,3.15v.09c0,1.14.37,2.04,1.23,3.15.32.41.98.57,1.46.36,2.15-.94,3.27-2.05,3.27-3.78Z"/>
    </g>
  </g>
</svg>