<?xml version="1.0" encoding="UTF-8"?>
<svg id="Layer_2" data-name="Layer 2" xmlns="http://www.w3.org/2000/svg" viewBox="0 0 84.98 103.14">
  <defs>
    <style>
      .cls-1 {
        fill: #ff8900;
      }
    </style>
  </defs>
  <g id="_圖層_1" data-name="圖層 1">
    <g>
      <g>
        <path class="cls-1" d="M1.77,70.08h0c.98,0,1.77.79,1.77,1.77v2.83c0,.98.79,1.77,1.77,1.77h2.99c.98,0,1.77-.79,1.77-1.77v-2.83c0-.98.79-1.77,1.77-1.77h0c.98,0,1.77.79,1.77,1.77v12.58c0,.98-.79,1.77-1.77,1.77h0c-.98,0-1.77-.79-1.77-1.77v-2.93c0-.98-.79-1.77-1.77-1.77h-2.99c-.98,0-1.77.79-1.77,1.77v2.93c0,.98-.79,1.77-1.77,1.77h0c-.98,0-1.77-.79-1.77-1.77v-12.58c0-.98.79-1.77,1.77-1.77Z"/>
        <path class="cls-1" d="M1.77,87.01h0c.98,0,1.77.79,1.77,1.77v2.83c0,.98.79,1.77,1.77,1.77h2.99c.98,0,1.77-.79,1.77-1.77v-2.83c0-.98.79-1.77,1.77-1.77h0c.98,0,1.77.79,1.77,1.77v12.58c0,.98-.79,1.77-1.77,1.77h0c-.98,0-1.77-.79-1.77-1.77v-2.93c0-.98-.79-1.77-1.77-1.77h-2.99c-.98,0-1.77.79-1.77,1.77v2.93c0,.98-.79,1.77-1.77,1.77h0c-.98,0-1.77-.79-1.77-1.77v-12.58c0-.98.79-1.77,1.77-1.77Z"/>
      </g>
      <g>
        <path class="cls-1" d="M17.19,82.97v-.04c0-2.62,1.99-3.83,4.83-3.83,1.12,0,1.95.17,2.74.43.09.03.19-.04.19-.14h0c0-1.41-.87-2.19-2.57-2.19-.97,0-1.73.14-2.51.38-.45.14-.93-.12-1.08-.57l-.32-.98c-.15-.45.08-.93.52-1.09,1.08-.4,2.24-.65,3.88-.65,1.86,0,3.2.49,4.05,1.34.9.9,1.3,2.22,1.3,3.83v6.08c0,.48-.39.88-.88.88h-1.54c-.48,0-.88-.39-.88-.88v-.06c0-.13-.15-.19-.25-.11-.8.77-1.88,1.27-3.38,1.27-2.26,0-4.12-1.3-4.12-3.67ZM25,82.19v-.51c0-.06-.03-.11-.09-.13-.57-.25-1.3-.41-2.09-.41-1.45,0-2.35.58-2.35,1.66v.04c0,.92.76,1.45,1.86,1.45,1.59,0,2.66-.87,2.66-2.1Z"/>
        <path class="cls-1" d="M17.19,99.42v-.04c0-2.62,1.99-3.83,4.83-3.83,1.12,0,1.95.17,2.74.43.09.03.19-.04.19-.14h0c0-1.41-.87-2.19-2.57-2.19-.97,0-1.73.14-2.51.38-.45.14-.93-.12-1.08-.57l-.32-.98c-.15-.45.08-.93.52-1.09,1.08-.4,2.24-.65,3.88-.65,1.86,0,3.2.49,4.05,1.34.9.9,1.3,2.22,1.3,3.83v6.08c0,.48-.39.88-.88.88h-1.54c-.48,0-.88-.39-.88-.88v-.06c0-.13-.15-.19-.25-.11-.8.77-1.88,1.27-3.38,1.27-2.26,0-4.12-1.3-4.12-3.67ZM25,98.64v-.51c0-.06-.03-.11-.09-.13-.57-.25-1.3-.41-2.09-.41-1.45,0-2.35.58-2.35,1.66v.04c0,.92.76,1.45,1.86,1.45,1.59,0,2.66-.87,2.66-2.1Z"/>
        <path class="cls-1" d="M31.61,83.02v-4.97c0-.4-.32-.72-.72-.72h0c-.4,0-.72-.32-.72-.72v-1.48c0-.4.32-.72.72-.72h0c.4,0,.72-.32.72-.72v-1.63c0-.4.32-.72.72-.72h1.97c.4,0,.72.32.72.72v1.63c0,.4.32.72.72.72h1.39c.4,0,.72.32.72.72v1.48c0,.4-.32.72-.72.72h-1.39c-.4,0-.72.32-.72.72v4.41c0,.78.34,1.16,1.1,1.16.28,0,.54-.03.8-.09.45-.1.88.23.88.7v1.27c0,.28-.16.53-.41.65-.62.3-1.34.47-2.27.47-2.08,0-3.49-.83-3.49-3.6Z"/>
        <path class="cls-1" d="M39.42,80.49v-.04c0-3.42,2.62-6.24,6.29-6.24,1.66,0,2.86.41,3.82,1.12.57.42.65,1.24.16,1.76l-.49.53c-.41.44-1.07.49-1.56.14-.54-.39-1.15-.62-1.95-.62-1.7,0-2.91,1.5-2.91,3.27v.04c0,1.84,1.19,3.31,3.04,3.31.8,0,1.42-.24,2.01-.65.47-.33,1.11-.26,1.51.15l.39.39c.5.5.44,1.32-.11,1.76-.98.78-2.17,1.29-3.95,1.29-3.6,0-6.24-2.78-6.24-6.2Z"/>
        <path class="cls-1" d="M53.89,70.08h1.18c.61,0,1.11.5,1.11,1.11v2.48c0,.83.89,1.38,1.62.99.52-.28,1.14-.46,1.89-.46,2.57,0,4.07,1.7,4.07,4.45v6.66c0,.61-.5,1.11-1.11,1.11h-1.18c-.61,0-1.11-.5-1.11-1.11v-5.58c0-1.61-.76-2.44-2.06-2.44s-2.13.83-2.13,2.44v5.58c0,.61-.5,1.11-1.11,1.11h-1.18c-.61,0-1.11-.5-1.11-1.11v-14.12c0-.61.5-1.11,1.11-1.11Z"/>
        <path class="cls-1" d="M81.86,85.47c-.38-.38-.98-.44-1.43-.14-1.13.76-2.43,1.23-3.94,1.23-3.06,0-5.36-1.78-5.36-4.61v-.05c0-1.68.75-2.95,2.14-3.86.48-.31.67-.93.41-1.45-.38-.76-.56-1.49-.56-2.28v-.05c0-2.19,1.76-4.2,4.84-4.2,2.72,0,4.5,1.78,4.5,4.02v.05c0,1.63-.79,2.75-2.04,3.53-.62.38-.72,1.24-.21,1.75h0c.53.53,1.41.41,1.77-.24.09-.16.18-.32.27-.49.3-.54.98-.74,1.52-.44l.58.32c.55.3.75,1,.43,1.54s-.65,1.1-1.01,1.63c-.3.44-.24,1.04.14,1.42l.73.73c.49.49.42,1.32-.15,1.72l-.7.49c-.45.31-1.06.26-1.44-.13l-.5-.5ZM78.16,81.71l-1.33-1.35c-.46-.46-1.22-.45-1.64.04-.36.42-.53.89-.53,1.37v.05c0,1.12.94,1.87,2.24,1.87.26,0,.51-.04.77-.1.82-.22,1.09-1.26.49-1.87ZM79.39,74.35v-.05c0-.91-.62-1.48-1.51-1.48-.94,0-1.55.66-1.55,1.62v.05c0,.43.1.8.34,1.19.3.51.96.68,1.48.4.82-.44,1.24-.97,1.24-1.73Z"/>
        <path class="cls-1" d="M32.01,90.87h1.71c.47,0,.85.38.85.85v.92c0,.15.2.2.27.07.59-1.1,1.43-1.85,2.71-2.03.45-.06.84.29.84.75v2.33c0,.25-.2.44-.44.44h0c-2.26,0-3.38,1.37-3.38,4.23v3.59c0,.47-.38.84-.84.84h-1.71c-.47,0-.84-.38-.84-.84v-10.31c0-.47.38-.85.85-.85Z"/>
        <path class="cls-1" d="M40.6,90.87h1.87c.34,0,.64.22.75.54l1.75,5.25c.24.72,1.26.72,1.51,0l1.77-5.25c.11-.32.41-.54.75-.54h1.8c.56,0,.94.56.74,1.08l-4.1,10.5c-.12.3-.41.51-.74.51h-2c-.33,0-.62-.2-.74-.51l-4.1-10.5c-.2-.52.18-1.08.74-1.08Z"/>
        <path class="cls-1" d="M52.69,96.94v-.04c0-3.42,2.44-6.24,5.93-6.24,4.01,0,5.84,3.11,5.84,6.51,0,0,0,0,0,0,0,.49-.41.89-.9.89h-6.09c-.78,0-1.2.93-.66,1.5s1.28.85,2.19.85,1.62-.23,2.35-.77c.34-.25.81-.24,1.13.05l.68.6c.4.36.4.98,0,1.34-1.06.95-2.45,1.51-4.21,1.51-3.6,0-6.27-2.53-6.27-6.2ZM59.94,95.93c.69,0,1.12-.74.78-1.34-.43-.76-1.15-1.22-2.1-1.22s-1.66.44-2.11,1.2c-.36.59.08,1.36.77,1.36h2.66Z"/>
        <path class="cls-1" d="M66.65,100.36l.24-.37c.32-.5.98-.66,1.5-.37,1.02.57,2.03.86,2.9.86.98,0,1.43-.36,1.43-.9v-.04c0-.74-1.16-.98-2.48-1.39-1.68-.49-3.58-1.28-3.58-3.6v-.04c0-2.44,1.97-3.8,4.39-3.8,1.13,0,2.34.29,3.42.79.59.28.84,1,.52,1.57l-.22.41c-.29.52-.92.73-1.46.48-.86-.4-1.67-.63-2.32-.63-.83,0-1.25.36-1.25.83v.04c0,.67,1.14.98,2.44,1.43,1.68.56,3.63,1.37,3.63,3.56v.04c0,2.66-1.99,3.87-4.59,3.87-1.35,0-2.82-.36-4.17-1.15-.56-.32-.73-1.05-.38-1.59Z"/>
        <path class="cls-1" d="M78.56,99.47v-4.97c0-.4-.32-.72-.72-.72h0c-.4,0-.72-.32-.72-.72v-1.48c0-.4.32-.72.72-.72h0c.4,0,.72-.32.72-.72v-1.63c0-.4.32-.72.72-.72h1.97c.4,0,.72.32.72.72v1.63c0,.4.32.72.72.72h1.39c.4,0,.72.32.72.72v1.48c0,.4-.32.72-.72.72h-1.39c-.4,0-.72.32-.72.72v4.41c0,.78.34,1.16,1.1,1.16.28,0,.54-.03.8-.09.45-.1.88.23.88.7v1.27c0,.28-.16.53-.41.65-.62.3-1.34.47-2.27.47-2.08,0-3.49-.83-3.49-3.6Z"/>
      </g>
      <path class="cls-1" d="M29.85,19.64c1.1-1.15,2.46-2.04,4-2.53s3.27-.57,4.05,1c1.56,3.15-7.04,10.04-3.46,12.53,3.58,2.49,9-7.9,13.25-7.57,4.25.33-10.67,17.91-13.38,25.94-2.71,8.03-13.18,2.53-3.89-8.15,9.29-10.68-8.1-6.71-10.18,5.97-1.49,9.1-15.02-1.25,9.61-27.19Z"/>
      <path class="cls-1" d="M37.64,62.04c-13.37,0-24.24-10.88-24.24-24.24,0-6.67,2.72-15.59,6.93-22.71C25.32,6.62,31.47,1.96,37.64,1.96s12.32,4.66,17.32,13.12c4.21,7.12,6.93,16.04,6.93,22.71,0,13.37-10.88,24.24-24.24,24.24ZM37.64,4.24c-11.7,0-21.97,20.91-21.97,33.55s9.86,21.97,21.97,21.97,21.97-9.86,21.97-21.97S49.34,4.24,37.64,4.24Z"/>
      <path class="cls-1" d="M59.78,33.2c-1.1,1.15-2.46,2.04-4,2.53-1.54.48-3.27.57-4.05-1-1.56-3.15,7.04-10.04,3.46-12.53s-9,7.9-13.25,7.57c-4.25-.33,10.67-17.91,13.38-25.94,2.71-8.03,13.18-2.53,3.89,8.15-9.29,10.68,8.1,6.71,10.18-5.97,1.49-9.1,15.02,1.25-9.61,27.19Z"/>
    </g>
  </g>
</svg>