<?xml version="1.0" encoding="UTF-8"?>
<svg id="Layer_2" data-name="Layer 2" xmlns="http://www.w3.org/2000/svg" xmlns:xlink="http://www.w3.org/1999/xlink" viewBox="0 0 198.08 286.1" preserveAspectRatio="none">
  <defs>
    <style>
      .cls-1 {
        fill: url(#_未命名漸層_123);
      }
    </style>
    <linearGradient id="_未命名漸層_123" data-name="未命名漸層 123" x1="1227.1" y1="69.37" x2="1179.91" y2="560.32" gradientTransform="translate(1311.48 310.49) rotate(-180)" gradientUnits="userSpaceOnUse">
      <stop offset="0" stop-color="#ff8000"/>
      <stop offset="1" stop-color="#db3f00"/>
    </linearGradient>
  </defs>
  <g id="_圖層_1" data-name="圖層 1">
    <path class="cls-1" d="M117.4,285.8c7.9.75,15.79.12,23.48-2.24,36.82-11.28,45.3-43.35,31.44-70.94-5.43-10.82-12.45-20.97-19.87-30.51-6.94-8.93-16.83-16.32-21.45-26.87-15.13-34.58,26.34-38.98,45.26-51.93,8.79-6.02,16.43-14.24,19.83-24.34,3.83-11.38,1.86-24.17-3.41-34.96-9.03-18.5-27.03-31.47-46.48-38.22C88.14-14.35,19.54,19.81,4.32,80.18c-9.88,39.21-1.76,82.43,13.72,119.09,4.97,11.78,10.91,23.19,18.02,33.82,18.43,27.52,44.05,49.18,81.33,52.7Z"/>
  </g>
</svg>