<?xml version="1.0" encoding="UTF-8"?>
<svg id="Layer_2" data-name="Layer 2" xmlns="http://www.w3.org/2000/svg" xmlns:xlink="http://www.w3.org/1999/xlink" viewBox="0 0 164.56 169.5">
  <defs>
    <style>
      .cls-1 {
        fill: url(#_未命名漸層_123);
      }
    </style>
    <linearGradient id="_未命名漸層_123" data-name="未命名漸層 123" x1="138.2" y1="24.87" x2="-27.68" y2="196.46" gradientUnits="userSpaceOnUse">
      <stop offset="0" stop-color="#ff8000"/>
      <stop offset="1" stop-color="#db3f00"/>
    </linearGradient>
  </defs>
  <g id="_圖層_1" data-name="圖層 1">
    <path class="cls-1" d="M88.08,155.9c-6.49,6.15-13.64,11.14-23.07,13.06-3.65.74-7.69.95-10.87-.98-3.76-2.28-5.37-7.13-4.9-11.5.47-4.37,2.66-8.37,5.07-12.05,5.46-8.33,30.82-30.42,12.04-40.68-18.16-9.92-42.72,37.51-62.89,35.93-8.56-.67,1.26-15.55,3-18.41,8.57-14.05,18.75-27.12,28.35-40.46,11.99-16.67,23.85-33.65,32.29-52.46,4.65-10.36,8.14-24.33,21.71-25.77,7.67-.82,13.54,4.48,14.49,11.96,2.06,16.15-10.01,28.61-19.28,40.24-4.22,5.3-16.01,18.31-10.31,25.98,3.96,5.32,13.27,2.47,18.19.53,10.23-4.03,19.19-11.43,26.11-19.88,8.12-9.93,13.57-21.89,15.77-34.53,7.05-40.42,34.87-30.77,30.27-.81-4.89,31.88-21.38,61.71-40.01,87.51-8.36,11.57-17.48,22.59-27.12,33.12-2.92,3.18-5.81,6.31-8.85,9.19Z"/>
  </g>
</svg>