<?xml version="1.0" encoding="UTF-8"?>
<svg id="Layer_2" data-name="Layer 2" xmlns="http://www.w3.org/2000/svg" viewBox="0 0 126.25 190.83">
  <defs></defs>
  <g id="_圖層_1" data-name="圖層 1">
    <g>
      <g>
        <path class="cls-2" d="M52.55,159.92v-7.24c0-.2-.16-.37-.37-.37h-.59c-.53,0-.96-.43-.96-.96v-1.98c0-.53.43-.96.96-.96h.64c.17,0,.32-.14.32-.32v-2.83c0-.53.43-.96.96-.96h2.64c.53,0,.96.43.96.96v2.75c0,.22.18.39.39.39h2.42c.53,0,.96.43.96.96v1.98c0,.53-.43.96-.96.96h-2.42c-.22,0-.39.17-.39.39v6.47c0,1.05.45,1.56,1.47,1.56.37,0,.71-.04,1.05-.11.61-.14,1.2.3,1.2.93v1.7c0,.36-.2.7-.53.86-.84.4-1.81.64-3.06.64-2.78,0-4.67-1.11-4.67-4.82Z"></path>
        <path class="cls-2" d="M62.41,156.53v-.06c0-4.58,3.5-8.35,8.41-8.35,2.67,0,4.45.79,5.86,2.13.31.3.32.8.02,1.12l-1.73,1.87c-.28.3-.75.33-1.05.06-.86-.78-1.79-1.25-3.13-1.25-2.28,0-3.89,2.01-3.89,4.37v.06c0,2.46,1.59,4.43,4.07,4.43,1.26,0,2.2-.45,3.11-1.2.33-.27.82-.26,1.12.05l1.56,1.58c.31.31.31.82,0,1.13-1.44,1.4-3.17,2.36-6,2.36-4.82,0-8.35-3.71-8.35-8.29Z"></path>
        <path class="cls-2" d="M80.12,142.61h3.42c.31,0,.57.25.57.57v6.04c0,.5.6.75.96.4.91-.86,2.08-1.5,3.74-1.5,3.44,0,5.45,2.28,5.45,5.96v9.82c0,.31-.25.57-.57.57h-3.42c-.31,0-.57-.25-.57-.57v-8.39c0-2.16-1.02-3.26-2.75-3.26s-2.84,1.11-2.84,3.26v8.39c0,.31-.25.57-.57.57h-3.42c-.31,0-.57-.25-.57-.57v-20.72c0-.31.25-.57.57-.57Z"></path>
        <path class="cls-2" d="M105.45,151.12c-.2-.2-.52-.24-.76-.07-1.01.73-2.17,1.2-3.55,1.2-2.57,0-4.51-1.5-4.51-3.88v-.04c0-1.61.81-2.77,2.31-3.54.16-.08.21-.27.11-.42-.52-.82-.75-1.58-.75-2.41v-.04c0-1.84,1.48-3.53,4.07-3.53,2.29,0,3.78,1.5,3.78,3.38v.04c0,1.68-1,2.71-2.49,3.38-.16.07-.2.27-.08.39l1.32,1.32c.11.11.29.09.37-.04.29-.47.59-.99.87-1.52.15-.29.52-.39.8-.24l1.12.62c.29.16.39.52.23.8-.36.64-.76,1.3-1.19,1.92-.16.24-.14.55.06.76l1.13,1.13c.26.26.22.69-.08.9l-1.19.83c-.24.16-.55.14-.76-.07l-.84-.85ZM103.21,148.83l-2.2-2.23c-.08-.08-.23-.1-.33-.04-.75.45-1.07,1.06-1.07,1.67v.04c0,.94.79,1.58,1.88,1.58.57,0,1.13-.21,1.66-.57.15-.1.17-.31.05-.43ZM103.59,141.97v-.04c0-.77-.52-1.25-1.27-1.25-.79,0-1.31.56-1.31,1.36v.04c0,.49.16.88.53,1.36.14.18.42.25.63.16.93-.41,1.41-.88,1.41-1.64Z"></path>
        <path class="cls-2" d="M14.56,143.17h2.38c.57,0,1.02.46,1.02,1.02v6.45c0,.59.47,1.06,1.06,1.06h6.63c.59,0,1.06-.47,1.06-1.06v-6.22c0-.69.56-1.25,1.25-1.25h2.31c.65,0,1.18.53,1.18,1.18v19.16c0,.68-.55,1.22-1.22,1.22h-2.47c-.58,0-1.05-.47-1.05-1.05v-6.55c0-.59-.47-1.06-1.06-1.06h-6.63c-.59,0-1.06.47-1.06,1.06v6.42c0,.65-.53,1.18-1.18,1.18h-2.4c-.65,0-1.17-.52-1.17-1.17v-19.06c0-.74.6-1.34,1.34-1.34Z"></path>
        <path class="cls-2" d="M41.32,174.42h2.29c.63,0,1.13.51,1.13,1.13v1.24c0,.2.27.27.37.09.78-1.47,1.91-2.47,3.62-2.71.6-.08,1.13.39,1.13,1v3.12c0,.33-.27.6-.6.6h0c-3.02,0-4.52,1.83-4.52,5.66v4.8c0,.62-.51,1.13-1.13,1.13h-2.29c-.62,0-1.13-.51-1.13-1.13v-13.79c0-.63.51-1.13,1.13-1.13Z"></path>
        <path class="cls-2" d="M52.84,174.42h3.49c.26,0,.49.17.58.42l3.12,9.33c.11.32.56.32.67,0l3.17-9.39c.07-.21.27-.36.49-.36h3.59c.37,0,.62.37.49.71l-5.75,14.72c-.17.44-.6.74-1.08.74h-2.55c-.48,0-.9-.29-1.08-.74l-5.7-14.6c-.16-.4.14-.83.57-.83Z"></path>
        <path class="cls-2" d="M69.42,182.54v-.06c0-4.58,3.26-8.35,7.93-8.35,5.36,0,7.81,4.16,7.81,8.71h0c0,.67-.53,1.2-1.19,1.2h-9.12c-.48,0-.81.5-.62.94.64,1.45,1.92,2.21,3.62,2.21,1.33,0,2.34-.36,3.41-1.22.29-.23.71-.23.98.02l1.54,1.36c.32.29.35.78.05,1.09-1.46,1.51-3.45,2.41-6.04,2.41-4.82,0-8.38-3.38-8.38-8.29ZM79.94,181.19c.44,0,.74-.42.62-.84-.46-1.57-1.57-2.57-3.21-2.57s-2.66.92-3.21,2.4c-.18.49.2,1.01.73,1.01h5.07Z"></path>
        <path class="cls-2" d="M87.39,187.73l1.12-1.72c.23-.36.71-.46,1.06-.23,1.54.98,3.11,1.49,4.43,1.49s1.92-.48,1.92-1.2v-.06c0-.99-1.56-1.32-3.32-1.86-2.25-.66-4.79-1.71-4.79-4.82v-.06c0-3.26,2.63-5.09,5.87-5.09,1.79,0,3.72.53,5.34,1.45.37.21.5.68.29,1.05l-1.01,1.82c-.2.37-.66.51-1.04.31-1.36-.71-2.67-1.13-3.68-1.13-1.11,0-1.68.48-1.68,1.11v.06c0,.9,1.53,1.32,3.26,1.92,2.25.75,4.85,1.83,4.85,4.76v.06c0,3.56-2.66,5.18-6.14,5.18-2.03,0-4.29-.61-6.27-1.97-.34-.24-.44-.71-.22-1.06Z"></path>
        <path class="cls-2" d="M103.22,185.92v-7.23c0-.21-.17-.37-.37-.37h-.6c-.52,0-.94-.42-.94-.94v-2.01c0-.52.42-.94.94-.94h.6c.21,0,.37-.17.37-.37v-2.79c0-.52.42-.94.94-.94h2.67c.52,0,.94.42.94.94v2.79c0,.21.17.37.37.37h2.46c.52,0,.94.42.94.94v2.01c0,.52-.42.94-.94.94h-2.46c-.21,0-.37.17-.37.37v6.48c0,1.05.45,1.56,1.47,1.56.48,0,.92-.07,1.34-.19.45-.13.91.23.91.7v2.15c0,.27-.15.52-.4.65-.87.44-1.87.71-3.19.71-2.78,0-4.67-1.11-4.67-4.82Z"></path>
        <path class="cls-2" d="M1.34,169.17h2.38c.57,0,1.02.46,1.02,1.02v6.45c0,.59.47,1.06,1.06,1.06h6.63c.59,0,1.06-.47,1.06-1.06v-6.22c0-.69.56-1.25,1.25-1.25h2.31c.65,0,1.18.53,1.18,1.18v19.16c0,.68-.55,1.22-1.22,1.22h-2.47c-.58,0-1.05-.47-1.05-1.05v-6.55c0-.59-.47-1.06-1.06-1.06h-6.63c-.59,0-1.06.47-1.06,1.06v6.42c0,.65-.53,1.18-1.18,1.18H1.17c-.65,0-1.17-.52-1.17-1.17v-19.06c0-.74.6-1.34,1.34-1.34Z"></path>
        <g>
          <path class="cls-2" d="M36.04,184.9v-4.17c0-2.16-.53-3.92-1.73-5.12-1.14-1.14-2.93-1.8-5.42-1.8-2.19,0-3.74.33-5.18.86-.58.22-.9.87-.71,1.47l.43,1.31c.2.6.83.95,1.44.76,1.05-.32,2.06-.51,3.36-.51,2.28,0,3.45,1.05,3.44,2.94,0,.13-.13.22-.25.18-1.06-.34-2.17-.57-3.67-.57-3.8,0-6.47,1.62-6.47,5.12v.06c0,3.17,2.49,4.91,5.51,4.91,2,0,3.45-.66,4.52-1.7l.57-.62c.69,1.76,1.72,2.57,4.27,2.45.06,0,.11,0,.16,0,.46,0,.83-.38.83-.85v-2.68c0-.25-.16-.54-.41-.54-.81,0-.7-.64-.7-1.51ZM31.73,184.38c0,1.65-1.44,2.81-3.56,2.81-1.47,0-2.48-.72-2.48-1.95v-.06c0-1.44,1.2-2.22,3.14-2.22,1.05,0,2.03.22,2.79.55.07.03.11.1.11.18v.68Z"></path>
          <path class="cls-2" d="M48.5,158.9v-4.17c0-2.16-.53-3.92-1.73-5.12-1.14-1.14-2.93-1.8-5.42-1.8-2.19,0-3.74.33-5.18.86-.58.22-.9.87-.71,1.47l.43,1.31c.2.6.83.95,1.44.76,1.05-.32,2.06-.51,3.36-.51,2.28,0,3.45,1.05,3.44,2.94,0,.13-.13.22-.25.18-1.06-.34-2.17-.57-3.67-.57-3.8,0-6.47,1.62-6.47,5.12v.06c0,3.17,2.49,4.91,5.51,4.91,2,0,3.45-.66,4.52-1.7l.57-.62c.69,1.76,1.59,2.61,4.27,2.45.06,0,.11,0,.16,0,.46,0,.83-.38.83-.85v-2.68c0-.25-.16-.55-.41-.54-.71.03-.7-.64-.7-1.51ZM44.2,158.38c0,1.65-1.44,2.81-3.56,2.81-1.47,0-2.48-.72-2.48-1.95v-.06c0-1.44,1.2-2.22,3.14-2.22,1.05,0,2.03.22,2.79.55.07.03.11.1.11.18v.68Z"></path>
        </g>
      </g>
      <g>
        <path class="cls-2" d="M13.02,87.92c1.35-4.08,2.45-8.03,5.01-11.84,3.16-4.7,6.87-7.35,11.63-9.29,1-.41,2.49-.76,3.57-.74s2.21.47,2.79,1.38c.81,1.26.37,2.93-.29,4.27-1.11,2.26-2.75,4.2-4.3,6.18-3.62,4.64-10.18,13.89-5.45,19.7,4.49,5.52,10.86.2,12.53-4.78,2.81-8.35,7.5-15.82,12.11-23.24,3.12-5.02,6.6-10.4,10.29-15.05,2.49-3.14,9.14-10.86,13.69-7.7,6.63,4.6-9.3,17.36-6.41,23.19,1.45,2.91,4.66,2.75,7.5,1.86,2.85-.89,5.36-2.56,7.41-4.68,12.82-13.2,25.06-29.4,29.05-47.76.73-3.37,1.36-7.21-.36-10.39-.72-1.32-1.94-2.48-3.43-2.66-1.77-.2-3.41,1.01-4.47,2.44-2.64,3.56-2.72,7.62-3.88,11.7-1.44,5.09-4.26,9.71-8.17,13.28-2.57,2.34-10.19,7.69-13.94,4.48-3.34-2.86,1.94-9.25,3.7-11.27,3.43-3.95,7.71-9.3,7.4-14.84-.16-2.7-1.89-5.36-4.59-6.07-4.57-1.2-7.22,3.15-8.57,6.8-3.75,10.16-9.37,19.58-15.87,28.22-2.99,3.98-14.82,22.11-21.21,17.67-5.56-3.86,4.34-14.47,6.07-18.43.86-1.97.99-4.55-.58-6.03-1.18-1.12-2.99-1.28-4.6-1.06-5.43.76-9.32,4.89-12.77,8.79-4.08,4.6-8.01,9.3-11.55,14.34-1.58,2.26-3.12,4.59-4.54,6.99-1.81,7.77-1.2,15.92,1.75,23.33l.48,1.2Z"></path>
        <g>
          <path class="cls-1" d="M98.52,72.11c0,24.38-19.83,44.21-44.21,44.21-18.81,0-34.91-11.81-41.29-28.4,0,0,0,0,0,0l-.48-1.2c-2.95-7.42-3.56-15.56-1.75-23.33,0,0,0,0,0,0C14.58,38.1,33.3,4.58,54.31,4.58c7.35,0,14.43,4.11,20.68,10.53.29-.73.58-1.47.85-2.21.29-.79.65-1.62,1.07-2.41C69.76,3.64,62.04,0,54.31,0c-12.42,0-24.8,9.38-34.85,26.4-8.47,14.33-13.94,32.27-13.94,45.7,0,26.9,21.89,48.79,48.79,48.79s48.79-21.89,48.79-48.79c0-7.08-1.52-15.42-4.2-23.82-1.09,1.56-2.21,3.1-3.37,4.61,1.92,6.8,2.99,13.43,2.99,19.21Z"></path>
          <path class="cls-1" d="M89.08,35.96c1.15-.79,2.12-1.57,2.77-2.16.3-.27.58-.55.87-.83-1.11-2.25-2.3-4.45-3.55-6.57-1.04-1.76-2.1-3.43-3.19-5.02-.9,1.39-1.91,2.7-2.92,3.92,2.2,3.35,4.22,6.94,6.02,10.66Z"></path>
        </g>
      </g>
      <path class="cls-1" d="M93.32,116.45c0-.79.2-1.53.59-2.22.39-.69.94-1.24,1.63-1.63.69-.4,1.44-.6,2.23-.6s1.51.19,2.19.57c.68.38,1.23.92,1.64,1.61.41.69.62,1.45.62,2.27s-.2,1.55-.6,2.23c-.4.68-.94,1.22-1.62,1.62-.68.4-1.43.6-2.24.6s-1.57-.2-2.26-.61c-.69-.41-1.23-.95-1.61-1.64-.38-.68-.58-1.42-.58-2.2ZM94.3,116.45c0,.62.16,1.21.47,1.75.31.54.74.97,1.28,1.27.54.31,1.12.46,1.74.46s1.2-.15,1.74-.46c.54-.31.96-.73,1.27-1.27.31-.54.47-1.12.47-1.74s-.15-1.2-.46-1.74c-.31-.54-.73-.96-1.27-1.28-.54-.31-1.12-.47-1.76-.47s-1.21.15-1.74.46c-.54.31-.96.73-1.27,1.27-.31.54-.46,1.12-.46,1.74ZM99.91,115.34c0,.34-.07.63-.2.87-.13.23-.34.42-.64.57l1.15,2.15h-1.72l-.86-1.9h-.21v1.9h-1.66v-5.18h1.72c1.61,0,2.41.53,2.41,1.6ZM97.44,115.99h.07c.23,0,.41-.04.54-.13.13-.08.2-.24.2-.45,0-.19-.05-.32-.16-.39-.11-.08-.3-.12-.57-.12h-.08v1.09Z"></path>
      <path class="cls-2" d="M117.34,186.38c0-.79.2-1.53.59-2.22.39-.69.94-1.24,1.63-1.63.69-.4,1.44-.6,2.23-.6s1.51.19,2.19.57c.68.38,1.23.92,1.64,1.61.41.69.62,1.45.62,2.27s-.2,1.55-.6,2.23c-.4.68-.94,1.22-1.62,1.62-.68.4-1.43.6-2.24.6s-1.57-.2-2.26-.61c-.69-.41-1.23-.95-1.61-1.64-.38-.68-.58-1.42-.58-2.2ZM118.32,186.38c0,.62.16,1.21.47,1.75.31.54.74.97,1.28,1.27.54.31,1.12.46,1.74.46s1.2-.15,1.74-.46c.54-.31.96-.73,1.27-1.27.31-.54.47-1.12.47-1.74s-.15-1.2-.46-1.74c-.31-.54-.73-.96-1.27-1.28-.54-.31-1.12-.47-1.76-.47s-1.21.15-1.74.46c-.54.31-.96.73-1.27,1.27-.31.54-.46,1.12-.46,1.74ZM123.93,185.28c0,.34-.07.63-.2.87-.13.23-.34.42-.64.57l1.15,2.15h-1.72l-.86-1.9h-.21v1.9h-1.66v-5.18h1.72c1.61,0,2.41.53,2.41,1.6ZM121.46,185.92h.07c.23,0,.41-.04.54-.13.13-.08.2-.24.2-.45,0-.19-.05-.32-.16-.39-.11-.08-.3-.12-.57-.12h-.08v1.09Z"></path>
    </g>
  </g>
</svg>