<svg width="562" height="606" viewBox="0 0 562 606" fill="none" xmlns="http://www.w3.org/2000/svg">
<rect width="562" height="605.016" rx="14" fill="#111111"/>
<g clip-path="url(#clip0_17030_1275)">
<path d="M493.127 290.267H487.242V275.27H492.379L508.22 283.655C508.927 284.04 509.538 284.255 510.047 284.31C510.869 284.392 512.017 284.42 513.398 284.374C513.747 284.36 514.059 284.296 514.312 284.186C514.55 284.076 514.739 283.921 514.904 283.705C515.042 283.517 515.115 283.197 515.115 282.77C515.115 282.243 514.982 281.845 514.707 281.561C514.436 281.281 514.023 281.148 513.444 281.148H510.185V275.274H513.357C514.404 275.274 515.404 275.471 516.322 275.87C517.24 276.264 518.053 276.805 518.742 277.496C519.416 278.142 519.976 278.94 520.385 279.852C520.798 280.777 521.005 281.772 521.005 282.821C521.005 284.122 520.761 285.254 520.279 286.202C519.802 287.142 519.136 287.939 518.315 288.567C517.488 289.162 516.547 289.598 515.51 289.873C514.495 290.143 513.403 290.276 512.274 290.276C511.484 290.276 510.809 290.258 510.272 290.23C509.717 290.203 509.18 290.138 508.675 290.042C508.147 289.946 507.614 289.776 507.091 289.547C506.591 289.332 505.989 289.039 505.287 288.668L493.136 282.372V290.276L493.127 290.267Z" fill="white"/>
<path d="M518.966 295.248C518.301 294.556 517.502 294.001 516.593 293.598C515.666 293.186 514.606 292.979 513.44 292.979H494.527C493.357 292.979 492.296 293.19 491.374 293.598C490.455 294.006 489.657 294.56 488.996 295.252C488.33 295.949 487.825 296.76 487.481 297.653C487.137 298.547 486.967 299.495 486.967 300.476C486.967 301.456 487.141 302.405 487.481 303.303C487.825 304.201 488.335 305.012 488.996 305.699C489.643 306.382 490.442 306.941 491.374 307.358C492.287 307.766 493.352 307.972 494.527 307.972H513.44C514.61 307.972 515.671 307.766 516.598 307.358C517.516 306.946 518.31 306.387 518.971 305.704C519.632 305.007 520.142 304.196 520.481 303.303C520.83 302.409 521 301.461 521 300.476C521 299.491 520.826 298.542 520.481 297.658C520.142 296.764 519.637 295.953 518.966 295.248ZM513.444 302.102H494.532C494.031 302.102 493.641 301.956 493.32 301.649C493.012 301.351 492.861 300.966 492.861 300.476C492.861 299.985 493.008 299.61 493.324 299.307C493.637 299 494.036 298.854 494.532 298.854H513.444C513.94 298.854 514.335 299 514.656 299.307C514.964 299.605 515.115 299.99 515.115 300.476C515.115 300.961 514.964 301.346 514.656 301.649C514.33 301.956 513.935 302.102 513.444 302.102Z" fill="white"/>
<path d="M493.127 325.682H487.242V310.685H492.379L508.22 319.07C508.927 319.45 509.538 319.67 510.047 319.72C510.864 319.803 512.017 319.83 513.398 319.789C513.747 319.775 514.059 319.711 514.312 319.597C514.55 319.491 514.739 319.331 514.904 319.116C515.042 318.928 515.115 318.607 515.115 318.185C515.115 317.658 514.982 317.26 514.707 316.976C514.436 316.696 514.023 316.559 513.444 316.559H510.185V310.689H513.357C514.399 310.689 515.4 310.886 516.322 311.28C517.24 311.674 518.053 312.22 518.742 312.902C519.416 313.548 519.976 314.346 520.385 315.262C520.798 316.183 521.005 317.182 521.005 318.227C521.005 319.528 520.761 320.664 520.279 321.613C519.802 322.552 519.136 323.345 518.315 323.977C517.488 324.568 516.547 325.004 515.51 325.283C514.495 325.549 513.403 325.686 512.274 325.686C511.493 325.686 510.818 325.668 510.272 325.64C509.717 325.608 509.18 325.544 508.675 325.453C508.147 325.352 507.614 325.187 507.091 324.958C506.595 324.738 505.989 324.445 505.287 324.078L493.136 317.782V325.686L493.127 325.682Z" fill="white"/>
<path d="M493.127 344.578H487.242V329.581H492.379L508.22 337.966C508.927 338.347 509.538 338.567 510.047 338.617C510.864 338.699 512.017 338.727 513.398 338.686C513.747 338.672 514.059 338.608 514.312 338.493C514.55 338.388 514.739 338.227 514.904 338.012C515.042 337.824 515.115 337.503 515.115 337.082C515.115 336.555 514.982 336.156 514.707 335.872C514.436 335.593 514.023 335.455 513.444 335.455H510.185V329.586H513.357C514.399 329.586 515.4 329.783 516.322 330.177C517.24 330.571 518.053 331.116 518.742 331.799C519.416 332.445 519.976 333.242 520.385 334.159C520.798 335.08 521.005 336.078 521.005 337.123C521.005 338.424 520.761 339.561 520.279 340.509C519.802 341.449 519.136 342.241 518.315 342.874C517.488 343.465 516.547 343.9 515.51 344.18C514.495 344.445 513.403 344.583 512.274 344.583C511.493 344.583 510.818 344.564 510.272 344.537C509.717 344.505 509.18 344.441 508.675 344.349C508.147 344.248 507.614 344.083 507.091 343.854C506.595 343.634 505.989 343.341 505.287 342.974L493.136 336.679V344.583L493.127 344.578Z" fill="white"/>
<path d="M66.7797 276.071H56.006L41 344.578H53.5869L56.6716 330.575H66.1003L69.1897 344.578H81.7719L66.7797 276.071ZM64.3192 319.111H58.2599L61.2299 303.926L64.3192 319.111Z" fill="white"/>
<path d="M115.346 323.313V327.597C115.346 334.942 112.615 338.915 110.985 340.628C109.328 342.438 105.362 345.513 97.586 345.513C92.0638 345.513 87.6891 343.657 84.5906 340.005C80.9366 335.753 80.9458 330.979 80.9458 327.492V293.337C80.9458 288.695 81.5793 283.407 86.2615 279.352C89.6997 276.255 94.5655 275.137 97.9578 275.137C102.576 275.137 107.451 276.96 110.37 279.788C113.317 282.729 115.066 287.188 115.066 291.747V297.804H102.833V292.494C102.833 291.508 102.544 290.028 101.896 289.098C101.364 288.356 100.304 287.444 98.3342 287.444C96.7689 287.444 95.5708 287.962 94.6895 289.02C93.5602 290.432 93.4638 292.32 93.4638 294.45V326.662C93.4638 328.674 93.4638 330.259 94.3819 331.524C94.7491 332.042 95.7866 333.21 97.8706 333.21C99.5782 333.21 101.102 332.591 101.846 331.597C102.489 330.704 102.837 329.182 102.837 327.226V323.313H115.351H115.346Z" fill="white"/>
<path d="M154.906 323.313V327.597C154.906 334.942 152.175 338.915 150.545 340.628C148.888 342.438 144.922 345.513 137.146 345.513C131.624 345.513 127.254 343.657 124.151 340.005C120.497 335.753 120.506 330.979 120.506 327.492V293.337C120.506 288.695 121.139 283.407 125.822 279.352C129.264 276.255 134.126 275.137 137.518 275.137C142.136 275.137 147.011 276.96 149.935 279.788C152.882 282.72 154.626 287.188 154.626 291.747V297.804H142.393V292.494C142.393 291.508 142.104 290.028 141.456 289.098C140.924 288.356 139.864 287.444 137.894 287.444C136.329 287.444 135.131 287.962 134.25 289.02C133.12 290.432 133.024 292.32 133.024 294.45V326.662C133.024 328.674 133.024 330.259 133.942 331.524C134.309 332.042 135.347 333.21 137.431 333.21C139.138 333.21 140.662 332.591 141.406 331.597C142.049 330.704 142.397 329.182 142.397 327.226V323.313H154.911H154.906Z" fill="white"/>
<path d="M172.868 332.555H191.574V344.578H160.355V276.071H191.29V288.095H172.868V304.173H189.141V315.729H172.868V332.555Z" fill="white"/>
<path d="M228.426 332.555V344.578H196.082V276.071H208.595V332.555H228.426Z" fill="white"/>
<path d="M245.448 332.555H264.153V344.578H232.934V276.071H263.873V288.095H245.448V304.173H261.725V315.729H245.448V332.555Z" fill="white"/>
<path d="M306.091 344.491L301.294 330.429L295.588 313.7C297.213 312.875 298.664 311.775 299.77 310.524C302.148 307.812 303.626 303.441 303.626 299.12V294.176C303.626 289.103 302.304 284.819 299.807 281.79C295.143 276.035 287.95 276.058 283.162 276.067H268.666V344.574H281.179V316.38H283.965L293.036 344.574H306.123L306.091 344.487V344.491ZM291.113 298.377C291.113 300.852 290.993 301.832 289.639 303.115C288.368 304.316 286.958 304.834 284.925 304.834H281.179V287.632H284.966C286.683 287.619 288.175 287.605 289.428 288.856C290.204 289.63 291.117 291.367 291.117 293.713V298.382L291.113 298.377Z" fill="white"/>
<path d="M380.621 276.071V288.095H369.021V344.578H356.507V288.095H344.912V276.071H380.621Z" fill="white"/>
<path d="M396.238 276.071H383.724V344.578H396.238V276.071Z" fill="white"/>
<path d="M433.236 279.769C429.986 276.74 425.639 275.137 420.654 275.137C415.669 275.137 411.322 276.74 408.072 279.769C403.123 284.402 402.715 289.749 402.715 294.835V325.828C402.715 330.914 403.123 336.257 408.081 340.894C411.322 343.914 415.678 345.518 420.659 345.518C425.639 345.518 429.991 343.914 433.246 340.894C438.194 336.257 438.603 330.914 438.603 325.828V294.835C438.603 289.749 438.194 284.402 433.236 279.769ZM415.219 293.424C415.219 291.431 415.458 290.106 416.725 288.851C417.248 288.319 418.465 287.444 420.654 287.444C422.844 287.444 424.065 288.319 424.593 288.851C425.855 290.106 426.089 291.431 426.089 293.424V327.226C426.089 329.224 425.855 330.543 424.593 331.803C424.069 332.326 422.853 333.21 420.654 333.21C418.455 333.21 417.248 332.326 416.725 331.803C415.462 330.543 415.219 329.224 415.219 327.226V293.424Z" fill="white"/>
<path d="M482.564 276.071V344.578H470.542L457.593 310.519V344.578H445.079V276.071H457.101L470.051 310.13V276.071H482.564Z" fill="white"/>
<path d="M369.021 344.578H349.888L330.751 310.418L311.893 344.578H293.031L293.853 343.089L294.835 341.311L298.742 334.231L299.77 332.371L300.794 330.515L330.751 276.245L355.488 320.416L357.054 323.211L358.619 326.002L364.752 336.958L367.882 342.548L369.021 344.578Z" fill="#FD6051"/>
<path d="M298.434 264.988C298.182 265.088 297.92 265.185 297.668 265.281L297.649 264.589C297.916 264.717 298.173 264.845 298.434 264.988Z" fill="black"/>
<path d="M329.456 250.421L329.305 250.462C326.477 251.227 323.723 252.217 321.005 253.266C319.61 253.802 318.233 254.38 316.856 254.971C316.814 252.987 316.768 250.993 316.718 248.996C316.654 247.305 316.525 245.655 316.493 244.01C316.438 242.37 316.433 240.73 316.507 239.112C316.58 237.499 316.741 235.877 317.117 234.438C317.31 233.733 317.59 233.073 317.934 232.683C318.274 232.303 318.632 232.184 319.293 232.221C319.445 232.234 319.619 232.253 319.793 232.289C319.927 232.321 320.028 232.344 320.138 232.395C320.358 232.496 320.578 232.66 320.776 232.894C321.194 233.357 321.529 234.031 321.786 234.741C322.304 236.18 322.571 237.797 322.768 239.401C323.135 242.64 323.135 245.976 322.988 249.261V249.28C322.975 249.6 323.213 249.875 323.539 249.917C323.879 249.958 324.186 249.71 324.223 249.371C324.595 246.004 324.742 242.654 324.535 239.24C324.421 237.54 324.214 235.827 323.672 234.099C323.392 233.238 323.025 232.358 322.369 231.542C322.038 231.139 321.611 230.754 321.07 230.479C320.817 230.342 320.51 230.241 320.239 230.182C320.005 230.127 319.761 230.081 319.5 230.049C318.986 229.989 318.407 229.994 317.815 230.177C317.232 230.342 316.677 230.699 316.277 231.112C315.479 231.955 315.12 232.885 314.827 233.76C314.28 235.533 314.115 237.252 313.982 238.965C313.867 240.67 313.835 242.37 313.844 244.056C313.84 245.752 313.932 247.429 313.945 249.069L313.964 256.254C313.633 256.4 313.293 256.547 312.958 256.698C307.643 259.108 302.41 261.693 297.342 264.598L297.296 264.63C297.222 264.671 297.163 264.744 297.131 264.827C297.117 264.859 297.112 264.9 297.112 264.941C297.112 265.088 297.213 265.235 297.365 265.285C299.733 266.087 301.795 267.663 303.47 269.514C305.155 271.365 306.541 273.473 307.725 275.677C308.91 277.881 309.855 280.213 310.704 282.569C311.131 283.751 311.503 284.951 311.875 286.161L312.44 287.998C312.545 288.31 312.646 288.621 312.784 288.97C312.848 289.144 312.917 289.313 313.055 289.561C313.096 289.62 313.133 289.689 313.202 289.772C313.261 289.849 313.339 289.964 313.532 290.115C313.592 290.156 313.638 290.189 313.72 290.234C313.821 290.28 313.899 290.321 314.028 290.353C314.175 290.395 314.299 290.413 314.469 290.408C314.643 290.404 314.808 290.363 314.941 290.303C315.515 290.037 315.593 289.767 315.699 289.625C315.754 289.524 315.8 289.419 315.818 289.304L315.832 289.272C316.236 287.513 316.397 285.826 316.557 284.126C316.695 282.44 316.814 280.754 316.865 279.082C316.984 275.723 317.03 272.373 317.03 269.028C317.012 265.212 316.966 261.413 316.897 257.61C318.582 256.913 320.262 256.208 321.923 255.466C323.241 254.884 324.558 254.293 325.862 253.674C325.88 253.642 325.908 253.61 325.935 253.573C326.867 252.4 328.01 251.456 329.062 250.631L329.254 250.916C329.332 250.883 329.415 250.856 329.502 250.847C329.571 250.842 329.649 250.842 329.723 250.842C329.856 250.755 330.021 250.714 330.186 250.751C330.058 250.485 329.755 250.338 329.456 250.421ZM312.467 281.858C311.398 279.517 310.186 277.226 308.809 275.045C307.432 272.859 305.848 270.797 303.98 269.015C302.318 267.434 300.468 266.073 298.43 264.983C298.177 265.083 297.916 265.18 297.663 265.276L297.645 264.584C297.911 264.712 298.168 264.84 298.43 264.983C303.631 263.026 308.767 260.946 313.89 258.843C313.918 258.829 313.936 258.824 313.964 258.81L313.991 269.028C313.996 272.355 313.996 275.677 313.904 278.981C313.849 280.846 313.803 282.733 313.67 284.58C313.284 283.668 312.88 282.761 312.467 281.858ZM315.295 288.172C315.295 288.172 315.267 288.131 315.24 288.095C315.327 288.182 315.286 288.172 315.295 288.172Z" fill="white"/>
<path d="M348.58 247.08C347.07 246.943 345.436 247.213 344.003 248.001C342.553 248.766 341.401 250.008 340.556 251.36C340.469 251.497 340.382 251.644 340.304 251.791C340.262 251.112 340.239 250.434 340.212 249.761C340.198 249.422 339.918 249.137 339.574 249.124C339.206 249.11 338.894 249.394 338.88 249.761C338.876 249.889 338.876 250.013 338.862 250.141C338.376 250.553 337.829 250.865 337.246 251.085C336.516 251.337 335.736 251.456 334.96 251.497C334.175 251.529 333.386 251.456 332.605 251.337C331.825 251.209 331.031 251.025 330.324 250.778H330.306C330.306 250.778 330.273 250.76 330.26 250.76C330.241 250.755 330.214 250.755 330.195 250.755C330.03 250.723 329.865 250.76 329.732 250.847C329.658 250.847 329.58 250.847 329.511 250.851C329.424 250.856 329.346 250.883 329.264 250.92L329.071 250.636C328.02 251.461 326.877 252.4 325.945 253.578C325.917 253.61 325.89 253.642 325.871 253.678C325.431 254.242 325.045 254.865 324.719 255.539C324.393 256.258 324.145 257.037 324.04 257.857C323.934 258.673 323.971 259.511 324.131 260.309C324.292 261.106 324.549 261.862 324.976 262.613C325.394 263.356 326.009 264.08 326.831 264.565C327.643 265.065 328.635 265.276 329.544 265.202C330.457 265.129 331.306 264.831 332.05 264.364C332.789 263.901 333.445 263.269 333.886 262.426C334.63 260.872 334.772 259.323 334.689 257.811C334.575 256.304 334.23 254.81 333.478 253.445C333.289 253.119 333.087 252.808 332.844 252.51C333.569 252.551 334.295 252.556 335.025 252.464C335.874 252.363 336.732 252.166 337.531 251.818C337.99 251.607 338.421 251.346 338.816 251.034C338.761 252.368 338.688 253.706 338.628 255.044L338.513 257.339C338.486 257.559 338.458 257.784 338.44 258.004C338.394 258.567 338.348 259.117 338.348 259.699C338.348 259.896 338.353 260.102 338.366 260.309V260.437C338.412 261.074 338.958 261.564 339.597 261.532C340.244 261.5 340.74 260.955 340.707 260.309V260.277C340.763 258.994 340.946 257.582 341.24 256.281C341.534 254.966 341.956 253.683 342.571 252.542C343.182 251.392 343.994 250.393 345.013 249.619C346.023 248.821 347.276 248.313 348.64 247.914H348.653C348.814 247.868 348.938 247.726 348.952 247.548C348.97 247.314 348.805 247.117 348.571 247.089L348.58 247.08ZM331.825 261.312C331.394 262.077 330.324 262.7 329.392 262.714C328.456 262.755 327.703 262.297 327.184 261.358C326.922 260.904 326.753 260.336 326.62 259.786C326.5 259.236 326.468 258.677 326.514 258.118C326.592 256.996 327.037 255.873 327.689 254.792C328.212 253.903 328.864 253.078 329.557 252.175C330.613 252.249 331.407 253.124 331.885 254.228C332.348 255.351 332.569 256.625 332.569 257.876C332.564 259.113 332.344 260.391 331.825 261.317V261.312Z" fill="white"/>
<path d="M364.261 247.323C364.261 247.323 364.256 247.351 364.256 247.356V247.323H364.261Z" fill="black"/>
<path d="M391.234 251.447C391.101 251.314 390.889 251.319 390.761 251.461H390.747C389.774 252.492 388.833 253.541 387.869 254.49C387.378 254.962 386.891 255.425 386.386 255.81C385.895 256.181 385.353 256.538 384.995 256.588C384.816 256.928 383.793 255.654 383.361 254.568C382.861 253.441 382.604 252.139 382.471 250.81C382.406 250.219 382.37 249.624 382.356 249.023C382.769 247.8 383.159 246.572 383.54 245.339C384.371 242.618 385.138 239.882 385.794 237.105C386.115 235.712 386.432 234.338 386.607 232.844C386.625 232.656 386.639 232.459 386.639 232.248C386.639 232.134 386.639 232.029 386.625 231.891C386.611 231.804 386.62 231.763 386.579 231.639C386.565 231.584 386.547 231.534 386.524 231.479C386.501 231.424 386.423 231.286 386.35 231.208C386.304 231.135 386.115 230.998 385.909 230.943C385.689 230.883 385.597 230.915 385.445 230.947C385.386 230.961 385.298 231.002 385.271 231.016L385.211 231.057L385.092 231.135C385.018 231.19 384.927 231.263 384.885 231.309L384.766 231.456C384.587 231.653 384.504 231.813 384.38 231.992C383.981 232.67 383.696 233.339 383.421 234.017C382.351 236.721 381.571 239.484 380.988 242.311C380.469 244.9 380.143 247.543 380.244 250.251C379.937 251.122 379.62 251.983 379.285 252.84C378.771 254.142 378.234 255.429 377.623 256.666C377.316 257.276 376.985 257.876 376.627 258.408C376.448 258.673 376.255 258.925 376.067 259.099C375.98 259.187 375.879 259.251 375.847 259.264C375.842 259.264 375.842 259.269 375.842 259.269H375.824C375.778 259.269 375.737 259.274 375.695 259.283C375.415 259.283 375.03 258.999 374.722 258.472C374.414 257.968 374.176 257.349 373.983 256.712C373.597 255.438 373.359 254.068 373.184 252.694C372.991 251.168 372.877 249.619 372.817 248.066C373.542 245.582 374.194 243.08 374.699 240.524C374.837 239.818 374.965 239.108 375.057 238.379C375.149 237.66 375.245 236.904 375.163 236.088C375.131 235.708 375.089 235.332 374.997 234.924C374.952 234.718 374.906 234.512 374.805 234.278C374.759 234.164 374.69 234.026 374.598 233.884C374.543 233.806 374.47 233.724 374.401 233.646C374.272 233.545 374.203 233.467 373.997 233.399C373.809 233.325 373.611 233.321 373.405 233.357C373.226 233.399 373.092 233.472 372.978 233.545C372.9 233.605 372.799 233.692 372.744 233.751C372.689 233.811 372.638 233.88 372.592 233.939C372.441 234.164 372.34 234.379 372.262 234.572C372.101 234.966 371.995 235.328 371.904 235.699C371.545 237.16 371.389 238.595 371.279 240.033C371.174 241.468 371.128 242.897 371.114 244.322C371.109 245.431 371.119 246.545 371.16 247.663C371.096 247.883 371.027 248.107 370.963 248.327C370.136 250.998 369.232 253.67 368.103 256.181C367.809 256.799 367.511 257.409 367.171 257.968C367.006 258.238 366.827 258.499 366.652 258.692C366.648 258.696 366.638 258.71 366.625 258.719C366.606 258.678 366.579 258.641 366.556 258.586C366.45 258.366 366.368 258.068 366.299 257.771C366.161 257.152 366.078 256.488 366.028 255.814C365.835 253.097 365.982 250.265 366.207 247.507C366.248 247.081 366 246.664 365.583 246.512C365.11 246.334 364.577 246.54 364.366 246.984C364.215 246.705 364.04 246.425 363.834 246.16C363.554 245.802 363.223 245.445 362.778 245.17C362.333 244.9 361.754 244.716 361.167 244.767C360.579 244.808 360.056 245.037 359.629 245.317C359.211 245.601 358.844 245.926 358.536 246.265C357.917 246.957 357.439 247.699 357.021 248.455C356.59 249.207 356.255 249.981 355.924 250.76C355.603 251.53 355.3 252.327 355.066 253.166C354.827 253.995 354.634 254.847 354.547 255.722C354.455 256.598 354.428 257.5 354.589 258.426C354.667 258.889 354.781 259.356 354.988 259.828C355.185 260.286 355.465 260.772 355.947 261.161C356.411 261.555 357.118 261.771 357.715 261.679C358.321 261.601 358.793 261.34 359.197 261.061C359.982 260.474 360.519 259.764 360.992 259.04C361.451 258.311 361.864 257.574 362.204 256.804C362.92 255.278 363.393 253.702 364.013 252.194C364.017 252.176 364.026 252.153 364.04 252.135C364.022 253.404 364.054 254.678 364.155 255.965C364.219 256.703 364.316 257.441 364.495 258.197C364.596 258.591 364.692 258.976 364.899 259.393C364.944 259.494 365.013 259.599 365.078 259.713C365.137 259.819 365.215 259.924 365.316 260.039L365.463 260.204C365.527 260.259 365.601 260.309 365.67 260.364C365.798 260.469 365.977 260.552 366.17 260.612L366.303 260.657C366.368 260.671 366.441 260.676 366.51 260.685C366.657 260.699 366.771 260.68 366.895 260.657C367.12 260.602 367.295 260.52 367.428 260.433C367.694 260.259 367.873 260.08 368.02 259.91C368.318 259.571 368.534 259.246 368.732 258.916C369.126 258.252 369.443 257.597 369.741 256.932C370.407 255.411 370.981 253.876 371.5 252.336C371.518 252.529 371.541 252.717 371.564 252.909C371.752 254.343 371.995 255.773 372.427 257.198C372.652 257.917 372.918 258.632 373.345 259.338C373.565 259.681 373.822 260.034 374.203 260.346C374.575 260.653 375.108 260.905 375.668 260.909C375.805 260.905 375.939 260.891 376.072 260.877C376.191 260.873 376.425 260.799 376.544 260.731C376.838 260.598 377.017 260.433 377.183 260.277C377.508 259.956 377.743 259.645 377.967 259.319C378.394 258.682 378.748 258.036 379.074 257.386C379.684 256.144 380.203 254.898 380.703 253.633C380.85 254.252 381.057 254.87 381.314 255.47C381.621 256.199 382.067 256.905 382.59 257.542L383.022 258L383.127 258.114C383.182 258.16 383.246 258.215 383.302 258.261C383.421 258.353 383.54 258.449 383.692 258.513C384.27 258.834 384.977 258.843 385.482 258.705C386.001 258.568 386.414 258.348 386.767 258.114C387.121 257.881 387.437 257.624 387.717 257.349C388.282 256.813 388.769 256.236 389.2 255.635C390.063 254.439 390.784 253.179 391.321 251.819C391.367 251.69 391.339 251.548 391.234 251.452V251.447ZM384.513 235.68C384.435 236.038 384.348 236.395 384.265 236.748C383.898 238.288 383.494 239.827 383.054 241.358C383.407 239.433 383.88 237.518 384.509 235.68H384.513ZM372.941 240.162C373.047 238.828 373.193 237.49 373.492 236.249C373.552 236.835 373.473 237.486 373.386 238.155C373.294 238.824 373.175 239.511 373.042 240.194C372.996 240.432 372.95 240.666 372.895 240.904C372.909 240.657 372.923 240.405 372.941 240.162ZM364.251 247.323H364.256C364.256 247.323 364.251 247.351 364.251 247.356V247.323ZM363.017 251.819C362.466 253.358 361.919 254.907 361.18 256.3C360.813 257.005 360.409 257.679 359.932 258.293C359.459 258.898 358.922 259.448 358.357 259.787C358.073 259.947 357.793 260.043 357.572 260.043C357.352 260.043 357.228 259.975 357.081 259.833C356.774 259.539 356.567 258.852 356.521 258.174C356.434 256.767 356.718 255.241 357.155 253.766C357.614 252.318 358.178 250.769 358.853 249.404C359.174 248.698 359.56 248.043 359.978 247.47C360.391 246.893 360.9 246.453 361.355 246.357C361.795 246.219 362.392 246.476 362.938 246.975C363.342 247.342 363.723 247.805 364.063 248.29C363.783 249.491 363.416 250.659 363.026 251.823L363.017 251.819Z" fill="white"/>
<path d="M81.3267 358.201H85.9171C86.4174 358.201 86.8948 358.247 87.3584 358.343C87.8221 358.467 88.2903 358.723 88.7677 359.113C89.1671 359.406 89.4884 359.823 89.7409 360.364C90.0025 360.891 90.1311 361.509 90.1311 362.224C90.1311 363.191 89.8005 364.071 89.1395 364.863C88.4601 365.697 87.4686 366.128 86.1649 366.151H83.2454V371.246H81.3267V358.196V358.201ZM83.2409 364.295H86.0869C86.7984 364.281 87.3355 364.057 87.6981 363.612C88.0424 363.182 88.2123 362.7 88.2123 362.174C88.2123 361.734 88.1434 361.367 88.0011 361.069C87.8542 360.799 87.6522 360.588 87.3906 360.432C86.9958 360.176 86.5368 360.052 86.0135 360.066H83.2363V364.3L83.2409 364.295Z" fill="white"/>
<path d="M94.9419 366.595C94.9419 365.615 95.0199 364.863 95.176 364.336C95.3367 363.823 95.5891 363.388 95.9242 363.035C96.1721 362.728 96.521 362.448 96.9663 362.205C97.4069 361.972 97.9716 361.853 98.6601 361.839C99.3716 361.853 99.95 361.972 100.391 362.205C100.827 362.448 101.162 362.728 101.396 363.039C101.754 363.392 102.007 363.823 102.158 364.336C102.3 364.863 102.374 365.615 102.374 366.59C102.374 367.566 102.3 368.313 102.158 368.827C102.007 369.34 101.754 369.784 101.396 370.16C101.281 370.297 101.139 370.43 100.969 370.563C100.818 370.714 100.625 370.843 100.386 370.948C99.9454 371.205 99.3716 371.338 98.6601 371.351C97.9716 371.338 97.4069 371.205 96.9663 370.948C96.521 370.714 96.1721 370.453 95.9242 370.16C95.5891 369.784 95.3413 369.34 95.176 368.827C95.0199 368.313 94.9419 367.566 94.9419 366.59V366.595ZM100.561 366.613C100.561 365.949 100.533 365.463 100.473 365.161C100.414 364.868 100.294 364.611 100.115 364.387C99.9822 364.176 99.7848 364.011 99.5231 363.892C99.2752 363.768 98.9814 363.704 98.6509 363.704C98.3434 363.704 98.0588 363.768 97.7971 363.892C97.5492 364.011 97.3427 364.176 97.1866 364.387C97.0305 364.606 96.9158 364.868 96.8469 365.161C96.7781 365.468 96.7413 365.944 96.7413 366.6C96.7413 367.255 96.7781 367.718 96.8469 368.02C96.9158 368.327 97.0305 368.593 97.1866 368.827C97.3427 369.005 97.5447 369.166 97.7971 369.303C98.0588 369.436 98.3434 369.5 98.6509 369.5C98.9814 369.5 99.2706 369.436 99.5231 369.303C99.7848 369.166 99.9822 369.005 100.115 368.827C100.294 368.593 100.414 368.323 100.473 368.02C100.533 367.722 100.561 367.255 100.561 366.618V366.613Z" fill="white"/>
<path d="M113.501 364.739H113.464L111.582 371.246H109.984L107.102 361.958H109.02L110.746 368.474H110.783L112.83 361.958H114.143L116.191 368.474H116.227L117.949 361.958H119.867L116.994 371.246H115.387L113.505 364.739H113.501Z" fill="white"/>
<path d="M126.533 367.309C126.533 368.056 126.739 368.624 127.157 369.009C127.543 369.403 128.057 369.6 128.686 369.6C129.42 369.6 130.081 369.298 130.66 368.698L131.972 369.852C131.054 370.865 129.971 371.369 128.727 371.355C128.254 371.355 127.791 371.282 127.336 371.14C127.111 371.062 126.891 370.957 126.675 370.828C126.45 370.714 126.239 370.576 126.042 370.407C125.661 370.063 125.348 369.577 125.114 368.959C124.853 368.363 124.724 367.584 124.724 366.631C124.724 365.678 124.839 364.949 125.064 364.34C125.289 363.721 125.578 363.231 125.931 362.874C126.289 362.512 126.693 362.246 127.139 362.086C127.579 361.925 128.011 361.843 128.442 361.843C129.471 361.857 130.343 362.205 131.054 362.892C131.78 363.589 132.147 364.551 132.156 365.774V367.314H126.533V367.309ZM130.347 365.77C130.324 365.046 130.136 364.496 129.783 364.125C129.434 363.772 128.989 363.593 128.442 363.593C127.896 363.593 127.451 363.772 127.102 364.125C126.758 364.496 126.569 365.046 126.537 365.77H130.347Z" fill="white"/>
<path d="M138.027 361.957H139.836V362.942H139.873C140.469 362.209 141.25 361.843 142.218 361.843C142.944 361.857 143.573 362.09 144.114 362.558L142.792 364.17C142.411 363.859 142.012 363.703 141.603 363.703C141.14 363.703 140.74 363.859 140.414 364.17C140.043 364.477 139.854 364.968 139.841 365.65V371.25H138.032V361.962L138.027 361.957Z" fill="white"/>
<path d="M149.875 367.309C149.875 368.056 150.082 368.624 150.499 369.009C150.885 369.403 151.399 369.6 152.028 369.6C152.762 369.6 153.423 369.298 154.002 368.698L155.315 369.852C154.397 370.865 153.313 371.369 152.069 371.355C151.596 371.355 151.133 371.282 150.678 371.14C150.453 371.062 150.233 370.957 150.017 370.828C149.792 370.714 149.581 370.576 149.384 370.407C149.003 370.063 148.691 369.577 148.457 368.959C148.195 368.363 148.066 367.584 148.066 366.631C148.066 365.678 148.181 364.949 148.406 364.34C148.631 363.721 148.92 363.231 149.274 362.874C149.632 362.512 150.036 362.246 150.481 362.086C150.922 361.925 151.353 361.843 151.785 361.843C152.813 361.857 153.685 362.205 154.397 362.892C155.122 363.589 155.489 364.551 155.498 365.774V367.314H149.875V367.309ZM153.685 365.77C153.662 365.046 153.474 364.496 153.12 364.125C152.772 363.772 152.326 363.593 151.78 363.593C151.234 363.593 150.789 363.772 150.44 364.125C150.095 364.496 149.907 365.046 149.875 365.77H153.685Z" fill="white"/>
<path d="M166.754 370.279C166.157 370.975 165.382 371.332 164.422 371.355C163.881 371.342 163.412 371.227 163.027 371.007C162.623 370.792 162.283 370.508 162.012 370.146C161.764 369.852 161.599 369.458 161.517 368.954C161.42 368.478 161.37 367.69 161.37 366.59C161.37 365.49 161.42 364.679 161.517 364.207C161.599 363.731 161.764 363.346 162.012 363.053C162.522 362.274 163.325 361.87 164.422 361.843C164.886 361.843 165.313 361.939 165.708 362.136C166.07 362.342 166.424 362.613 166.759 362.938V358.2H168.567V371.25H166.759V370.279H166.754ZM164.973 363.703C164.546 363.703 164.216 363.777 163.991 363.928C163.743 364.088 163.559 364.313 163.444 364.592C163.334 364.872 163.261 365.179 163.229 365.509C163.192 365.861 163.178 366.223 163.178 366.595C163.178 366.966 163.197 367.291 163.229 367.626C163.265 367.978 163.334 368.295 163.444 368.579C163.559 368.849 163.743 369.069 163.991 369.243C164.216 369.413 164.542 369.495 164.973 369.495C165.405 369.495 165.74 369.403 165.988 369.225C166.235 369.051 166.405 368.821 166.502 368.542C166.616 368.262 166.694 367.946 166.736 367.598C166.75 367.254 166.754 366.92 166.754 366.59C166.754 366.233 166.75 365.884 166.736 365.559C166.694 365.229 166.616 364.927 166.502 364.643C166.41 364.363 166.24 364.134 165.988 363.96C165.74 363.786 165.4 363.699 164.973 363.699V363.703Z" fill="white"/>
<path d="M182.641 358.2H184.45V362.943C184.781 362.613 185.143 362.347 185.533 362.136C185.896 361.939 186.314 361.843 186.773 361.843C187.879 361.875 188.687 362.278 189.197 363.062C189.444 363.355 189.614 363.74 189.706 364.216C189.793 364.688 189.835 365.481 189.835 366.599C189.835 367.717 189.793 368.482 189.706 368.964C189.614 369.463 189.444 369.862 189.192 370.155C188.944 370.512 188.618 370.801 188.21 371.016C187.81 371.236 187.328 371.355 186.768 371.365C185.818 371.342 185.042 370.984 184.441 370.288V371.259H182.632V358.209L182.641 358.2ZM186.236 363.703C185.832 363.703 185.511 363.79 185.272 363.964C185.024 364.139 184.84 364.368 184.726 364.647C184.615 364.927 184.542 365.234 184.51 365.564C184.473 365.894 184.459 366.237 184.459 366.595C184.459 366.924 184.478 367.259 184.51 367.603C184.547 367.951 184.615 368.262 184.726 368.547C184.84 368.826 185.024 369.055 185.272 369.229C185.511 369.408 185.832 369.5 186.236 369.5C186.663 369.5 187.002 369.417 187.25 369.248C187.498 369.073 187.677 368.854 187.778 368.583C187.893 368.304 187.971 367.983 188.012 367.63C188.026 367.296 188.031 366.952 188.031 366.599C188.031 366.228 188.026 365.866 188.012 365.513C187.971 365.183 187.893 364.881 187.778 364.597C187.673 364.317 187.498 364.093 187.25 363.932C187.002 363.781 186.663 363.708 186.236 363.708V363.703Z" fill="white"/>
<path d="M194.544 361.958H196.463L198.598 368.464H198.634L200.76 361.958H202.688L198.809 373.17C198.561 373.867 198.217 374.352 197.776 374.618C197.331 374.875 196.826 375.003 196.266 375.003H195.669V373.248H196.197C196.436 373.248 196.656 373.184 196.858 373.051C197.06 372.913 197.202 372.712 197.285 372.442L197.781 370.879L194.554 361.953L194.544 361.958Z" fill="white"/>
<path d="M214.586 358.2H216.615L219.484 368.139H219.521L222.399 358.2H224.428L220.246 371.25H218.754L214.582 358.2H214.586Z" fill="white"/>
<path d="M229.349 358.2H231.157V360.061H229.349V358.2ZM229.349 361.958H231.157V371.245H229.349V361.958Z" fill="white"/>
<path d="M238.731 367.309C238.731 368.056 238.938 368.624 239.356 369.009C239.741 369.403 240.255 369.6 240.884 369.6C241.619 369.6 242.28 369.298 242.858 368.698L244.171 369.852C243.253 370.865 242.17 371.369 240.926 371.355C240.453 371.355 239.989 371.282 239.535 371.14C239.31 371.062 239.09 370.957 238.874 370.828C238.649 370.714 238.438 370.576 238.24 370.407C237.859 370.063 237.547 369.577 237.313 368.959C237.051 368.363 236.923 367.584 236.923 366.631C236.923 365.678 237.038 364.949 237.263 364.34C237.487 363.721 237.777 363.231 238.13 362.874C238.488 362.512 238.892 362.246 239.337 362.086C239.778 361.925 240.21 361.843 240.641 361.843C241.669 361.857 242.542 362.205 243.253 362.892C243.978 363.589 244.346 364.551 244.355 365.774V367.314H238.731V367.309ZM242.541 365.77C242.519 365.046 242.33 364.496 241.977 364.125C241.628 363.772 241.183 363.593 240.636 363.593C240.09 363.593 239.645 363.772 239.296 364.125C238.952 364.496 238.764 365.046 238.731 365.77H242.541Z" fill="white"/>
<path d="M255.486 364.739H255.45L253.568 371.246H251.97L249.087 361.958H251.006L252.732 368.474H252.769L254.816 361.958H256.129L258.176 368.474H258.213L259.935 361.958H261.853L258.98 371.246H257.373L255.491 364.739H255.486Z" fill="white"/>
<path d="M267.472 368.084C268.482 368.941 269.68 369.372 271.071 369.385C272.714 369.362 273.55 368.753 273.573 367.566C273.587 366.595 273.036 366.008 271.92 365.811C271.411 365.738 270.851 365.66 270.245 365.568C269.157 365.385 268.326 364.968 267.761 364.322C267.178 363.658 266.885 362.851 266.885 361.903C266.885 360.762 267.252 359.841 267.986 359.144C268.698 358.453 269.708 358.1 271.016 358.086C272.59 358.123 273.958 358.572 275.12 359.433L274.05 361.06C273.1 360.414 272.053 360.079 270.915 360.056C270.323 360.056 269.832 360.207 269.437 360.514C269.024 360.831 268.813 361.303 268.803 361.93C268.803 362.306 268.946 362.645 269.23 362.952C269.515 363.264 269.969 363.479 270.594 363.598C270.942 363.658 271.415 363.726 272.017 363.804C273.206 363.974 274.082 364.409 274.647 365.119C275.207 365.816 275.492 366.632 275.492 367.557C275.427 370.054 273.945 371.319 271.048 371.356C269.175 371.356 267.564 370.76 266.214 369.573L267.472 368.084Z" fill="white"/>
<path d="M280.913 366.595C280.913 365.615 280.991 364.863 281.147 364.336C281.307 363.823 281.56 363.388 281.895 363.035C282.143 362.728 282.492 362.448 282.937 362.205C283.378 361.972 283.942 361.853 284.631 361.839C285.342 361.853 285.921 361.972 286.361 362.205C286.797 362.448 287.133 362.728 287.367 363.039C287.725 363.392 287.977 363.823 288.129 364.336C288.271 364.863 288.344 365.615 288.344 366.59C288.344 367.566 288.271 368.313 288.129 368.827C287.977 369.34 287.725 369.784 287.367 370.16C287.252 370.297 287.11 370.43 286.94 370.563C286.788 370.714 286.596 370.843 286.357 370.948C285.916 371.205 285.342 371.338 284.631 371.351C283.942 371.338 283.378 371.205 282.937 370.948C282.492 370.714 282.143 370.453 281.895 370.16C281.56 369.784 281.312 369.34 281.147 368.827C280.991 368.313 280.913 367.566 280.913 366.59V366.595ZM286.536 366.613C286.536 365.949 286.508 365.463 286.449 365.161C286.389 364.868 286.27 364.611 286.091 364.387C285.957 364.176 285.76 364.011 285.498 363.892C285.251 363.768 284.957 363.704 284.626 363.704C284.319 363.704 284.034 363.768 283.772 363.892C283.525 364.011 283.318 364.176 283.162 364.387C283.006 364.606 282.891 364.868 282.822 365.161C282.753 365.468 282.717 365.944 282.717 366.6C282.717 367.255 282.753 367.718 282.822 368.02C282.891 368.327 283.006 368.593 283.162 368.827C283.318 369.005 283.52 369.166 283.772 369.303C284.034 369.436 284.319 369.5 284.626 369.5C284.957 369.5 285.246 369.436 285.498 369.303C285.76 369.166 285.957 369.005 286.091 368.827C286.27 368.593 286.389 368.323 286.449 368.02C286.508 367.722 286.536 367.255 286.536 366.618V366.613Z" fill="white"/>
<path d="M294.216 361.957H296.024V362.942H296.061C296.658 362.209 297.438 361.843 298.402 361.843C299.146 361.843 299.83 362.113 300.45 362.658C301.06 363.208 301.381 364.015 301.414 365.073V371.25H299.605V365.71C299.605 365.059 299.435 364.565 299.1 364.221C298.77 363.873 298.343 363.703 297.824 363.703C297.305 363.703 296.874 363.877 296.539 364.221C296.194 364.56 296.024 365.059 296.024 365.71V371.25H294.216V361.962V361.957Z" fill="white"/>
<path d="M307.803 358.2H309.612V360.061H307.803V358.2ZM307.803 361.958H309.612V371.245H307.803V361.958Z" fill="white"/>
<path d="M322.46 369.752C322.066 370.215 321.602 370.59 321.069 370.884C320.537 371.186 319.922 371.342 319.22 371.356C318.155 371.356 317.223 370.984 316.419 370.238C315.589 369.491 315.157 368.286 315.139 366.613C315.162 364.927 315.589 363.703 316.424 362.943C317.227 362.196 318.164 361.829 319.229 361.843C319.926 361.857 320.546 362.004 321.079 362.288C321.611 362.581 322.075 362.97 322.47 363.456L321.134 364.679C320.675 364.052 320.064 363.726 319.302 363.699C317.76 363.676 316.979 364.643 316.956 366.609C316.979 368.56 317.76 369.523 319.302 369.491C320.064 369.477 320.679 369.156 321.134 368.519L322.474 369.747L322.46 369.752Z" fill="white"/>
<path d="M334.855 361.958H337.026L338.812 364.959L340.607 361.958H342.778L339.73 366.503L342.902 371.246H340.74L338.812 368.153L336.893 371.246H334.722L337.802 366.503L334.85 361.958H334.855Z" fill="white"/>
<path d="M363.379 365.546H358.357V371.246H356.438V358.196H358.357V363.791H363.379V358.196H365.298V371.246H363.379V365.546Z" fill="white"/>
<path d="M371.849 361.958H373.657V367.498C373.657 368.125 373.827 368.616 374.171 368.969C374.506 369.321 374.938 369.496 375.457 369.496C375.975 369.496 376.402 369.321 376.733 368.969C377.068 368.616 377.238 368.125 377.238 367.498V361.958H379.046V371.246H377.238V370.252H377.201C376.604 370.985 375.829 371.351 374.869 371.351C374.121 371.338 373.451 371.058 372.849 370.513C372.198 369.977 371.862 369.184 371.853 368.139V361.958H371.849Z" fill="white"/>
<path d="M385.647 368.409C386.386 369.202 387.336 369.601 388.502 369.601C389.026 369.601 389.453 369.495 389.783 369.289C390.114 369.083 390.279 368.79 390.279 368.414C390.279 368.079 390.182 367.846 389.985 367.717C389.783 367.58 389.512 367.507 389.177 367.493L387.575 367.351C386.813 367.277 386.198 367.016 385.721 366.563C385.234 366.123 384.986 365.504 384.972 364.711C384.986 363.758 385.312 363.039 385.955 362.562C386.579 362.086 387.373 361.848 388.337 361.848C388.755 361.848 389.127 361.875 389.457 361.93C389.788 361.99 390.095 362.072 390.389 362.182C390.944 362.416 391.445 362.727 391.885 363.121L390.761 364.473C390.412 364.212 390.045 364.001 389.655 363.832C389.274 363.68 388.833 363.607 388.333 363.607C387.763 363.607 387.369 363.713 387.139 363.919C386.9 364.13 386.781 364.395 386.781 364.725C386.767 364.936 386.859 365.115 387.052 365.27C387.226 365.445 387.534 365.555 387.974 365.6L389.471 365.715C390.412 365.788 391.091 366.077 391.509 366.595C391.899 367.094 392.092 367.731 392.092 368.505C392.078 369.408 391.725 370.105 391.022 370.595C390.329 371.094 389.439 371.355 388.355 371.365C386.887 371.365 385.56 370.81 384.385 369.701L385.647 368.423V368.409Z" fill="white"/>
<path d="M397.977 359.131H399.786V361.958H401.108V363.387H399.786V368.803C399.772 369.275 399.988 369.504 400.429 369.491H401.108V371.246H400.162C399.529 371.246 399.006 371.044 398.602 370.636C398.184 370.251 397.977 369.688 397.977 368.955V363.383H397.068V361.953H397.977V359.126V359.131Z" fill="white"/>
<path d="M406.644 358.2H408.453V368.858C408.453 369.28 408.678 369.495 409.132 369.495H409.761V371.25H408.953C408.292 371.25 407.75 371.08 407.323 370.741C406.874 370.398 406.649 369.816 406.649 369.005V358.205L406.644 358.2Z" fill="white"/>
<path d="M416.412 367.309C416.412 368.056 416.619 368.624 417.036 369.009C417.422 369.403 417.936 369.6 418.565 369.6C419.299 369.6 419.961 369.298 420.539 368.698L421.852 369.852C420.934 370.865 419.85 371.369 418.606 371.355C418.134 371.355 417.67 371.282 417.215 371.14C416.991 371.062 416.77 370.957 416.554 370.828C416.33 370.714 416.118 370.576 415.921 370.407C415.54 370.063 415.228 369.577 414.994 368.959C414.732 368.363 414.604 367.584 414.604 366.631C414.604 365.678 414.718 364.949 414.943 364.34C415.168 363.721 415.457 363.231 415.811 362.874C416.169 362.512 416.573 362.246 417.018 362.086C417.459 361.925 417.89 361.843 418.322 361.843C419.35 361.857 420.222 362.205 420.934 362.892C421.659 363.589 422.026 364.551 422.035 365.774V367.314H416.412V367.309ZM420.222 365.77C420.199 365.046 420.011 364.496 419.658 364.125C419.309 363.772 418.863 363.593 418.317 363.593C417.771 363.593 417.326 363.772 416.977 364.125C416.632 364.496 416.444 365.046 416.412 365.77H420.222Z" fill="white"/>
<path d="M436.137 358.201H444.225V360.061H438.056V363.919H443.326V365.67H438.056V371.246H436.137V358.196V358.201Z" fill="white"/>
<path d="M449.514 361.958H451.322V367.498C451.322 368.125 451.492 368.616 451.836 368.969C452.172 369.321 452.603 369.496 453.122 369.496C453.64 369.496 454.067 369.321 454.398 368.969C454.733 368.616 454.903 368.125 454.903 367.498V361.958H456.711V371.246H454.903V370.252H454.866C454.269 370.985 453.494 371.351 452.534 371.351C451.786 371.338 451.116 371.058 450.514 370.513C449.863 369.977 449.527 369.184 449.518 368.139V361.958H449.514Z" fill="white"/>
<path d="M463.046 361.957H464.855V362.942H464.891C465.488 362.209 466.268 361.843 467.232 361.843C467.976 361.843 468.66 362.113 469.28 362.658C469.89 363.208 470.212 364.015 470.244 365.073V371.25H468.435V365.71C468.435 365.059 468.265 364.565 467.93 364.221C467.6 363.873 467.173 363.703 466.654 363.703C466.135 363.703 465.704 363.877 465.369 364.221C465.024 364.56 464.855 365.059 464.855 365.71V371.25H463.046V361.962V361.957Z" fill="white"/>
<path d="M481.968 370.279C481.371 370.975 480.595 371.332 479.636 371.355C479.094 371.342 478.626 371.227 478.24 371.007C477.836 370.792 477.496 370.508 477.226 370.146C476.978 369.852 476.813 369.458 476.73 368.954C476.633 368.478 476.583 367.69 476.583 366.59C476.583 365.49 476.633 364.679 476.73 364.207C476.813 363.731 476.978 363.346 477.226 363.053C477.735 362.274 478.539 361.87 479.636 361.843C480.099 361.843 480.526 361.939 480.921 362.136C481.284 362.342 481.637 362.613 481.972 362.938V358.2H483.781V371.25H481.972V370.279H481.968ZM480.186 363.703C479.76 363.703 479.429 363.777 479.204 363.928C478.956 364.088 478.773 364.313 478.658 364.592C478.548 364.872 478.474 365.179 478.442 365.509C478.405 365.861 478.392 366.223 478.392 366.595C478.392 366.966 478.41 367.291 478.442 367.626C478.479 367.978 478.548 368.295 478.658 368.579C478.773 368.849 478.956 369.069 479.204 369.243C479.429 369.413 479.755 369.495 480.186 369.495C480.618 369.495 480.953 369.403 481.201 369.225C481.449 369.051 481.619 368.821 481.715 368.542C481.83 368.262 481.908 367.946 481.949 367.598C481.963 367.254 481.968 366.92 481.968 366.59C481.968 366.233 481.963 365.884 481.949 365.559C481.908 365.229 481.83 364.927 481.715 364.643C481.623 364.363 481.453 364.134 481.201 363.96C480.953 363.786 480.613 363.699 480.186 363.699V363.703Z" fill="white"/>
</g>
<defs>
<clipPath id="clip0_17030_1275">
<rect width="480" height="145" fill="white" transform="translate(41 230.008)"/>
</clipPath>
</defs>
</svg>
