<svg xmlns="http://www.w3.org/2000/svg" width="398" height="398.002" viewBox="0 0 398 398.002">
  <g id="Group_31572" data-name="Group 31572" transform="translate(-880 -5919.999)">
    <rect id="Rectangle_445" data-name="Rectangle 445" width="133" height="133" transform="translate(880 5920)" fill="#fd6051"/>
    <rect id="Rectangle_446" data-name="Rectangle 446" width="133" height="132" transform="translate(1013 6185) rotate(180)" fill="#f0f4f7"/>
    <rect id="Rectangle_449" data-name="Rectangle 449" width="133" height="133" transform="translate(880 6185)" fill="#fd6051"/>
    <rect id="Rectangle_443" data-name="Rectangle 443" width="133" height="132" transform="translate(1013 6053) rotate(-90)" fill="#f0f4f7"/>
    <rect id="Rectangle_447" data-name="Rectangle 447" width="132" height="132" transform="translate(1013 6185) rotate(-90)" fill="#ffc200"/>
    <rect id="Rectangle_450" data-name="Rectangle 450" width="133" height="132" transform="translate(1145 6185) rotate(90)" fill="#f0f4f7"/>
    <rect id="Rectangle_444" data-name="Rectangle 444" width="133" height="133" transform="translate(1278 6053) rotate(180)" fill="#fd6051"/>
    <rect id="Rectangle_448" data-name="Rectangle 448" width="133" height="132" transform="translate(1145 6053)" fill="#f0f4f7"/>
    <rect id="Rectangle_451" data-name="Rectangle 451" width="133" height="133" transform="translate(1278 6318) rotate(180)" fill="#fd6051"/>
    <path id="Path_3890" data-name="Path 3890" d="M1706.667,680.588l27.867,15.474,32.905,18.271L1734.534,732.6l-27.867,15.474v32.588L1766.4,747.5l59.731-33.167L1766.4,681.167,1706.667,648Z" transform="translate(-826.667 5272)" fill="#1e2782"/>
    <path id="Path_3891" data-name="Path 3891" d="M0,32.588,27.867,48.062,60.773,66.333,27.867,84.6,0,100.079v32.588L59.73,99.5l59.731-33.167L59.73,33.167,0,0Z" transform="translate(1012.667 6185.333) rotate(180)" fill="#fd6051"/>
    <path id="Path_3894" data-name="Path 3894" d="M1706.667,680.588l27.867,15.474,32.905,18.271L1734.534,732.6l-27.867,15.474v32.588L1766.4,747.5l59.731-33.167L1766.4,681.167,1706.667,648Z" transform="translate(-826.667 5537.333)" fill="#1e2782"/>
    <path id="Path_3888" data-name="Path 3888" d="M0,32.588,27.867,48.062,60.773,66.333,27.867,84.6,0,100.079v32.588L59.73,99.5l59.731-33.167L59.73,33.167,0,0Z" transform="translate(1012.667 6052.667) rotate(-90)" fill="#fd6051"/>
    <path id="Path_3895" data-name="Path 3895" d="M0,32.588,27.867,48.062,60.773,66.333,27.867,84.6,0,100.079v32.588L59.73,99.5l59.731-33.167L59.73,33.167,0,0Z" transform="translate(1145.333 6185.333) rotate(90)" fill="#fd6051"/>
    <path id="Path_3889" data-name="Path 3889" d="M0,32.588,27.867,48.062,60.773,66.333,27.867,84.6,0,100.079v32.588L59.73,99.5l59.731-33.167L59.73,33.167,0,0Z" transform="translate(1278 6052.667) rotate(180)" fill="#1e2782"/>
    <path id="Path_3893" data-name="Path 3893" d="M1706.667,680.588l27.867,15.474,32.905,18.271L1734.534,732.6l-27.867,15.474v32.588L1766.4,747.5l59.731-33.167L1766.4,681.167,1706.667,648Z" transform="translate(-561.333 5404.667)" fill="#fd6051"/>
    <path id="Path_3896" data-name="Path 3896" d="M0,32.588,27.867,48.062,60.773,66.333,27.867,84.6,0,100.079v32.588L59.73,99.5l59.731-33.167L59.73,33.167,0,0Z" transform="translate(1278 6318) rotate(180)" fill="#1e2782"/>
  </g>
</svg>
