<svg xmlns="http://www.w3.org/2000/svg" width="494.308" height="182.984" viewBox="0 0 494.308 182.984">
  <g id="Group_31728" data-name="Group 31728" transform="translate(-968 -8996.916)">
    <path id="Path_4183" data-name="Path 4183" d="M1706.667,692.948l38.437,21.343,45.385,25.2-45.385,25.2-38.437,21.343v44.948l82.385-45.746,82.385-45.746-82.385-45.746L1706.667,648Z" transform="translate(-738.667 8348.916)" fill="#6f59d8"/>
    <path id="Path_4184" data-name="Path 4184" d="M1706.667,692.948l38.437,21.343,45.385,25.2-45.385,25.2-38.437,21.343v44.948l82.385-45.746,82.385-45.746-82.385-45.746L1706.667,648Z" transform="translate(-573.897 8348.916)" fill="#404555"/>
    <path id="Path_4185" data-name="Path 4185" d="M1706.667,692.948l38.437,21.343,45.385,25.2-45.385,25.2-38.437,21.343v44.948l82.385-45.746,82.385-45.746-82.385-45.746L1706.667,648Z" transform="translate(-409.127 8348.916)" fill="#fd6051"/>
  </g>
</svg>
