<svg xmlns="http://www.w3.org/2000/svg" width="397.503" height="396.542" viewBox="0 0 397.503 396.542">
  <g id="Group_31730" data-name="Group 31730" transform="translate(-761.311 -10972.256)">
    <path id="Path_4469" data-name="Path 4469" d="M0,0H133V133H0Z" transform="translate(1025.814 11368.798) rotate(180)" fill="#fd6051"/>
    <rect id="Rectangle_596" data-name="Rectangle 596" width="264.249" height="264.937" transform="translate(1025.814 11237.192) rotate(180)" fill="#f0f4f7"/>
    <rect id="Rectangle_592" data-name="Rectangle 592" width="132.375" height="132.918" transform="translate(1025.635 11104.631) rotate(-90)" fill="#ffc200"/>
    <rect id="Rectangle_593" data-name="Rectangle 593" width="133" height="133" transform="translate(1025.814 11237.756) rotate(-90)" fill="#6f59d8"/>
    <rect id="Rectangle_595" data-name="Rectangle 595" width="131.604" height="131.604" transform="translate(1025.94 11237.192)" fill="#404555"/>
    <rect id="Rectangle_590" data-name="Rectangle 590" width="132.918" height="131.542" transform="translate(761.565 11237.256)" fill="#1e2782"/>
    <path id="Path_4222" data-name="Path 4222" d="M1706.667,648Z" transform="translate(-945.355 10325.172)" fill="#ffc200"/>
    <path id="Path_4217" data-name="Path 4217" d="M1706.667,680.629l27.9,15.494,32.947,18.295-32.947,18.295-27.9,15.494v32.629l59.806-33.209,59.806-33.209-59.806-33.209L1706.667,648Z" transform="translate(377.718 12811.424) rotate(-90)" fill="#fd6051"/>
    <path id="Path_4218" data-name="Path 4218" d="M0,32.649l28.025,15.5L61.117,66.459,28.025,84.764,0,100.268v32.649L60.069,99.688l60.069-33.229L60.069,33.229,0,0Z" transform="translate(1025.896 11237.756) rotate(-90)" fill="#ffc200"/>
    <path id="Path_4221" data-name="Path 4221" d="M0,32.145,27.488,47.408,59.946,65.431,27.488,83.454,0,98.717v32.145L58.918,98.147l58.918-32.716L58.918,32.716,0,0Z" transform="translate(894.483 11237.756)" fill="#ffc200"/>
    <path id="Path_4470" data-name="Path 4470" d="M0,65.078l55.651,30.9,65.712,36.488L55.651,168.956,0,199.858v65.078L119.281,198.7l119.282-66.234L119.281,66.234,0,0Z" transform="translate(1025.814 11237.192) rotate(180)" fill="#404555"/>
    <path id="Path_4216" data-name="Path 4216" d="M1706.667,680.247l27.576,15.312L1766.8,713.64l-32.561,18.081-27.576,15.312V779.28l59.106-32.82,59.106-32.82-59.106-32.82L1706.667,648Z" transform="translate(-945.019 10589.338)" fill="#fd6051"/>
  </g>
</svg>
