<?xml version="1.0" encoding="UTF-8"?>
<svg id="_圖層_1" data-name="圖層 1" xmlns="http://www.w3.org/2000/svg" viewBox="0 0 3862.78 3000">
  <defs>
    <style>
      .cls-1 {
        fill: none;
        stroke: #ff7100;
        stroke-miterlimit: 10;
        stroke-width: 9px;
      }
    </style>
  </defs>
  <path class="cls-1" d="M3806.05,119.65c-22.25-41.2-73.29-71.31-119.8-76.7-55.02-6.37-113.99,19.59-147.03,64.04-82.28,110.7-79.61,252.04-115.83,379.13-45.12,158.3-132.99,302.14-254.77,412.89-79.96,72.71-317.47,238.87-433.98,138.96-103.99-89.18,60.77-287.78,115.54-350.66,106.96-122.79,245.42-297.79,235.68-470.19-4.75-84.17-57.16-155.8-141.35-178.05-142.23-37.58-239.09,84.83-273.32,209.01-123.33,447.48-419.4,808.25-709.65,1158.97-88.95,107.47-181.55,235.95-321,279.86-42.29,13.32-86.97,14.2-124.67-12.04-172.84-120.35,135.49-450.2,189.51-573.2,26.96-61.39,30.84-141.65-17.86-187.75-36.78-34.81-92.88-39.97-143.04-32.99-147.83,20.58-262.64,125.24-360.86,229.77-275.57,293.28-505.34,638.66-744.02,961.88-91.59,124.03-183.34,248.25-264.79,379.27-71.15,114.45-183.46,271.16-111,410.67,7.55,14.58,18.26,27.22,31.4,37.09,175.76,131.99,409.48-3.81,523.75-154.17,114.79-151.04,137.21-347.98,238.39-506.48,95.73-149.97,293.34-341.98,486.05-338.46,33.65.61,68.68,14.75,86.82,43.1,25.01,39.1,11.46,91.07-9.03,132.72-34.53,70.2-85.85,130.45-134.07,192.06-112.85,144.16-328.67,439.69-175.64,615.85,149.1,171.63,339.72,17.38,395.64-151.2,86.31-260.22,233.84-492.16,377.46-722.69,97.34-156.24,205.79-323.26,320.75-467.96,77.62-97.69,284.92-337.65,426.38-239.15,206.06,143.48-332.55,445.29-232.24,675.11,40.48,92.75,115.87,142.44,265.52,104.22,90.02-22.99,166.87-79.56,230.8-145.27,399.27-410.37,780.8-913.92,905.57-1485.13,22.87-104.72,58.05-233.67,4.69-332.49Z"/>
</svg>