<?xml version="1.0" encoding="UTF-8"?>
<svg id="Layer_2" data-name="Layer 2" xmlns="http://www.w3.org/2000/svg" viewBox="0 0 143.98 154.9">
  <defs>
    <style>
      .cls-1 {
        fill: #ff8900;
      }
    </style>
  </defs>
  <g id="_圖層_1" data-name="圖層 1">
    <g>
      <path fill="#F2EBDA" d="M41.51,52.46c2.6-2.74,5.85-4.85,9.5-5.99,3.65-1.14,7.76-1.35,9.61,2.38,3.71,7.46-16.7,23.81-8.21,29.71,8.49,5.9,21.34-18.74,31.42-17.95,10.07.79-25.31,42.47-31.73,61.52-6.42,19.05-31.25,6.01-9.23-19.33,22.02-25.34-19.21-15.9-24.15,14.16-3.54,21.58-35.62-2.96,22.79-64.49Z"/>
      <path class="cls-1" d="M62.52,154.9C28.04,154.9,0,126.86,0,92.39c0-17.21,7.01-40.2,17.86-58.56C30.75,12.01,46.61,0,62.52,0s31.77,12.01,44.66,33.83c10.85,18.36,17.86,41.35,17.86,58.56,0,34.47-28.04,62.52-62.52,62.52ZM62.52,5.87C32.34,5.87,5.87,59.79,5.87,92.39s25.41,56.65,56.65,56.65,56.65-25.41,56.65-56.65S92.69,5.87,62.52,5.87Z"/>
      <path fill="#F2EBDA" d="M109.23,89.3c-2.6,2.74-5.85,4.85-9.5,5.99s-7.76,1.35-9.61-2.38c-3.71-7.46,16.7-23.81,8.21-29.71-8.49-5.9-21.34,18.74-31.42,17.95-10.07-.79,25.31-42.47,31.73-61.52,6.42-19.05,31.25-6.01,9.23,19.33-22.02,25.34,19.21,15.9,24.15-14.16,3.54-21.58,35.62,2.96-22.79,64.49Z"/>
    </g>
  </g>
</svg>