<svg xmlns="http://www.w3.org/2000/svg" width="836" height="1766" viewBox="0 0 836 1766" fill="none">
  <path d="M-88.389 1594.38C-166.831 1672.02 -253.25 1735.02 -367.227 1759.26C-411.343 1768.6 -460.173 1771.25 -498.609 1746.88C-544.054 1718.1 -563.514 1656.87 -557.833 1601.7C-552.152 1546.53 -525.683 1496.04 -496.554 1449.58C-430.561 1344.42 -124.045 1065.55 -351.031 936.02C-570.524 810.786 -867.371 1409.56 -1111.16 1389.61C-1214.62 1381.16 -1095.93 1193.3 -1074.9 1157.2C-971.316 979.827 -848.274 814.826 -732.243 646.417C-587.324 435.969 -443.977 221.607 -341.966 -15.8574C-285.763 -146.646 -243.581 -323.008 -79.5658 -341.187C13.1385 -351.539 84.087 -284.63 95.5693 -190.2C120.468 13.6836 -25.4178 170.983 -137.461 317.805C-188.466 384.714 -330.967 548.957 -262.074 645.786C-214.211 712.947 -101.684 676.968 -42.2181 652.477C81.4279 601.6 189.724 508.18 273.363 401.504C371.507 276.144 437.379 125.157 463.969 -34.4153C549.18 -544.692 885.429 -422.867 829.831 -44.641C770.727 357.824 571.419 734.409 346.246 1060.12C245.201 1206.18 134.972 1345.3 18.4566 1478.24C-16.8363 1518.38 -51.7666 1557.9 -88.5099 1594.25L-88.389 1594.38Z" fill="url(#paint0_linear_16987_937)"/>
  <defs>
    <linearGradient id="paint0_linear_16987_937" x1="517.392" y1="-59.7902" x2="-1577.84" y2="2015.24" gradientUnits="userSpaceOnUse">
      <stop stop-color="#FF8000"/>
      <stop offset="1" stop-color="#DB3F00"/>
    </linearGradient>
  </defs>
</svg>
