<svg xmlns="http://www.w3.org/2000/svg" viewBox="400 -180 1400 1810" fill="none">
  <path d="M648.25 1627.86C618.682 1627.86 593.796 1621.54 572.732 1608.76C528.732 1582.02 504.391 1526.43 510.788 1467.02C516.328 1415.1 542.384 1369.57 567.115 1331.83C589.739 1297.29 616.498 1265.95 642.321 1235.7C675.711 1196.56 707.307 1159.53 730.945 1116.03C746.548 1087.26 766.208 1044.69 756.534 1006.49C745.768 963.843 698.023 931.41 649.966 934.061C616.42 935.932 581.236 950.667 542.462 979.046C486.214 1020.21 434.568 1069.64 384.639 1117.51C359.83 1141.29 334.086 1165.85 307.951 1189.31L304.986 1191.96C241.872 1248.72 155.354 1326.37 57.4462 1318.81C27.0206 1316.39 13.056 1300.88 6.65878 1288.25C-16.2775 1242.88 24.056 1167.02 66.4959 1098.8L70.3966 1092.48C137.333 982.788 214.645 877.538 289.383 775.795C314.426 741.647 340.405 706.33 365.447 671.558C491.909 495.828 612.597 322.281 698.101 131.816C705.045 116.301 711.754 100.084 718.775 83.0104C760.747 -19.0439 808.414 -134.742 942.209 -149.009C997.443 -154.857 1043.24 -136.847 1074.6 -96.7737C1126.63 -30.2707 1126.4 82.9324 1099.88 155.75C1074.68 224.826 1048 292.343 999.237 358.846C987.613 374.75 975.521 390.499 963.741 405.78C935.499 442.657 906.244 480.781 883.23 521.088C872.932 539.098 862.088 560.538 859.201 583.147C856.549 603.729 861.776 623.064 873.01 634.837C892.279 654.951 928.79 654.328 956.017 650.196C1058.37 634.759 1158.54 575.039 1230.86 486.394C1316.37 381.533 1348.9 250.866 1372.77 136.649C1374.17 130.022 1375.5 123.24 1376.91 116.379C1394.3 31.0087 1414.04 -65.6662 1480.9 -129.051C1512.88 -159.456 1555.01 -176.141 1599.71 -176.141C1690.52 -176.141 1741.47 -83.3639 1751.61 8.55518C1755.51 43.6388 1754.42 81.5291 1748.33 121.213C1704.1 409.444 1566.95 709.526 1329.08 1038.53C1245.92 1153.53 1150.74 1269.77 1046.05 1383.99C1015.15 1417.75 984.805 1450.49 953.131 1480.43C869.031 1560.03 791.719 1603.61 702.314 1621.78C682.732 1625.75 664.711 1627.78 648.172 1627.78L648.25 1627.86ZM655.583 887.127C722.988 887.127 786.336 933.204 801.939 995.029C815.591 1049.06 791.485 1102.7 772.137 1138.33C746.158 1186.2 711.52 1226.81 677.974 1266.03C651.917 1296.51 627.342 1325.36 606.278 1357.48C584.59 1390.54 561.888 1429.99 557.363 1472.01C553.696 1505.92 564.618 1549.04 597.073 1568.76C619.307 1582.25 650.668 1584.59 693.03 1576.01C773.307 1559.72 843.598 1519.72 920.989 1446.52C951.492 1417.59 981.294 1385.55 1011.56 1352.41C1115.01 1239.52 1209.1 1124.68 1291.17 1011.17C1524.59 688.242 1659.01 394.865 1702.15 114.118C1707.61 78.5665 1708.62 44.7303 1705.19 13.7008C1692.63 -99.4244 1630.76 -129.362 1599.79 -129.362C1566.71 -129.362 1536.76 -117.512 1513.2 -95.2144C1457.1 -41.9653 1438.85 47.0692 1422.86 125.656C1421.45 132.595 1420.05 139.378 1418.64 146.083C1393.68 265.679 1359.35 402.739 1267.22 515.786C1187.64 613.397 1076.78 679.198 963.038 696.35C907.492 704.692 865.754 694.869 839.151 667.036C818.244 645.206 808.336 611.526 812.783 577.066C816.683 546.192 830.804 518.437 842.584 497.777C867.159 454.741 897.35 415.291 926.606 377.167C938.152 362.12 950.088 346.527 961.478 331.013C1006.65 269.343 1030.91 207.83 1055.88 139.456C1078.42 77.6309 1077.88 -17.0169 1037.7 -68.239C1016.56 -95.2924 986.053 -106.909 947.202 -102.699C841.102 -91.3942 801.002 6.21626 762.151 100.63C755.286 117.314 748.187 134.622 740.853 150.839C653.477 345.28 531.462 521.01 403.441 698.767C378.242 733.773 352.263 769.168 327.064 803.394C252.873 904.357 176.184 1008.75 110.262 1116.73L106.127 1123.43C41.1412 1227.83 44.0277 1258.7 48.3185 1267.12C49.7228 1269.93 54.0136 1271.57 60.9569 1272.11C139.049 1278.19 216.752 1208.26 273.546 1157.19L276.511 1154.54C302.1 1131.54 327.532 1107.22 352.107 1083.67C403.128 1034.79 455.944 984.27 514.689 941.312C561.03 907.398 604.406 889.7 647.236 887.361C649.966 887.205 652.775 887.127 655.505 887.127H655.583Z" fill="#FF9100"/>
</svg>
