<svg width="562" height="606" viewBox="0 0 562 606" fill="none" xmlns="http://www.w3.org/2000/svg">
<rect width="562" height="605.016" rx="14" fill="white"/>
<g clip-path="url(#clip0_17030_1267)">
<path d="M491.123 290.099H485.238V274.895H490.374L506.216 283.396C506.923 283.786 507.533 284.004 508.043 284.06C508.864 284.144 510.012 284.171 511.394 284.125C511.743 284.111 512.055 284.046 512.307 283.935C512.546 283.823 512.734 283.665 512.899 283.447C513.037 283.256 513.11 282.931 513.11 282.499C513.11 281.965 512.977 281.561 512.702 281.273C512.431 280.989 512.018 280.855 511.44 280.855H508.18V274.899H511.352C512.399 274.899 513.4 275.099 514.318 275.503C515.236 275.903 516.048 276.451 516.737 277.152C517.412 277.807 517.972 278.616 518.38 279.54C518.793 280.478 519 281.486 519 282.55C519 283.87 518.757 285.017 518.275 285.979C517.797 286.931 517.132 287.739 516.31 288.376C515.484 288.979 514.543 289.421 513.505 289.7C512.491 289.974 511.398 290.108 510.269 290.108C509.48 290.108 508.805 290.09 508.268 290.062C507.712 290.034 507.175 289.969 506.67 289.871C506.142 289.774 505.61 289.602 505.087 289.37C504.586 289.151 503.985 288.854 503.283 288.478L491.132 282.095V290.108L491.123 290.099Z" fill="black"/>
<path d="M516.962 295.148C516.297 294.447 515.498 293.885 514.589 293.476C513.662 293.058 512.601 292.849 511.435 292.849H492.523C491.353 292.849 490.292 293.062 489.37 293.476C488.452 293.889 487.653 294.451 486.992 295.153C486.326 295.859 485.821 296.681 485.477 297.587C485.133 298.493 484.963 299.454 484.963 300.449C484.963 301.443 485.137 302.404 485.477 303.315C485.821 304.225 486.331 305.048 486.992 305.744C487.639 306.437 488.438 307.003 489.37 307.426C490.283 307.839 491.348 308.048 492.523 308.048H511.435C512.606 308.048 513.666 307.839 514.594 307.426C515.512 307.008 516.306 306.441 516.967 305.749C517.628 305.043 518.137 304.221 518.477 303.315C518.826 302.409 518.996 301.447 518.996 300.449C518.996 299.45 518.821 298.488 518.477 297.592C518.137 296.686 517.632 295.864 516.962 295.148ZM511.44 302.098H492.528C492.027 302.098 491.637 301.949 491.316 301.638C491.008 301.336 490.857 300.946 490.857 300.449C490.857 299.951 491.004 299.571 491.321 299.264C491.633 298.953 492.032 298.804 492.528 298.804H511.44C511.936 298.804 512.331 298.953 512.652 299.264C512.959 299.566 513.111 299.956 513.111 300.449C513.111 300.941 512.959 301.331 512.652 301.638C512.326 301.949 511.931 302.098 511.44 302.098Z" fill="black"/>
<path d="M491.123 326.003H485.238V310.799H490.374L506.216 319.3C506.923 319.686 507.533 319.909 508.043 319.96C508.86 320.043 510.012 320.071 511.394 320.029C511.743 320.015 512.055 319.95 512.307 319.834C512.546 319.727 512.734 319.565 512.899 319.346C513.037 319.156 513.11 318.831 513.11 318.403C513.11 317.869 512.977 317.465 512.702 317.177C512.431 316.894 512.018 316.754 511.44 316.754H508.18V310.803H511.352C512.394 310.803 513.395 311.003 514.318 311.403C515.236 311.802 516.048 312.355 516.737 313.047C517.412 313.702 517.972 314.511 518.38 315.44C518.793 316.373 519 317.386 519 318.445C519 319.765 518.757 320.917 518.275 321.878C517.797 322.83 517.132 323.634 516.31 324.275C515.484 324.874 514.543 325.316 513.505 325.599C512.491 325.869 511.398 326.008 510.269 326.008C509.489 326.008 508.814 325.989 508.268 325.962C507.712 325.929 507.175 325.864 506.67 325.771C506.142 325.669 505.61 325.502 505.087 325.269C504.591 325.046 503.985 324.749 503.283 324.377L491.132 317.995V326.008L491.123 326.003Z" fill="black"/>
<path d="M491.123 345.162H485.238V329.957H490.374L506.216 338.458C506.923 338.844 507.533 339.067 508.043 339.118C508.86 339.201 510.012 339.229 511.394 339.187C511.743 339.174 512.055 339.109 512.307 338.992C512.546 338.886 512.734 338.723 512.899 338.505C513.037 338.314 513.11 337.989 513.11 337.562C513.11 337.027 512.977 336.623 512.702 336.335C512.431 336.052 512.018 335.912 511.44 335.912H508.18V329.962H511.352C512.394 329.962 513.395 330.161 514.318 330.561C515.236 330.96 516.048 331.513 516.737 332.205C517.412 332.86 517.972 333.669 518.38 334.598C518.793 335.532 519 336.544 519 337.603C519 338.923 518.757 340.075 518.275 341.036C517.797 341.989 517.132 342.792 516.31 343.433C515.484 344.033 514.543 344.474 513.505 344.757C512.491 345.027 511.398 345.166 510.269 345.166C509.489 345.166 508.814 345.148 508.268 345.12C507.712 345.087 507.175 345.022 506.67 344.929C506.142 344.827 505.61 344.66 505.087 344.428C504.591 344.205 503.985 343.907 503.283 343.536L491.132 337.153V345.166L491.123 345.162Z" fill="black"/>
<path d="M64.7795 275.707H54.0059L39 345.161H51.5868L54.6715 330.964H64.1001L67.1894 345.161H79.7716L64.7795 275.707ZM62.319 319.342H56.2598L59.2297 303.947L62.319 319.342Z" fill="black"/>
<path d="M113.346 323.602V327.945C113.346 335.392 110.615 339.42 108.985 341.157C107.328 342.992 103.362 346.109 95.5859 346.109C90.0637 346.109 85.689 344.228 82.5905 340.525C78.9366 336.214 78.9458 331.374 78.9458 327.838V293.211C78.9458 288.506 79.5793 283.145 84.2614 279.034C87.6996 275.893 92.5654 274.76 95.9577 274.76C100.576 274.76 105.451 276.609 108.37 279.475C111.317 282.457 113.066 286.977 113.066 291.599V297.741H100.833V292.357C100.833 291.358 100.543 289.857 99.8962 288.914C99.3637 288.162 98.3034 287.237 96.3341 287.237C94.7688 287.237 93.5707 287.762 92.6893 288.835C91.5601 290.266 91.4637 292.18 91.4637 294.34V326.998C91.4637 329.037 91.4637 330.644 92.3818 331.926C92.749 332.451 93.7864 333.636 95.8705 333.636C97.5781 333.636 99.1021 333.009 99.8457 332.001C100.488 331.095 100.837 329.553 100.837 327.569V323.602H113.351H113.346Z" fill="black"/>
<path d="M152.906 323.602V327.945C152.906 335.392 150.174 339.42 148.545 341.157C146.888 342.992 142.922 346.109 135.145 346.109C129.623 346.109 125.253 344.228 122.15 340.525C118.496 336.214 118.505 331.374 118.505 327.838V293.211C118.505 288.506 119.139 283.145 123.821 279.034C127.264 275.893 132.125 274.76 135.517 274.76C140.135 274.76 145.01 276.609 147.934 279.475C150.881 282.448 152.626 286.977 152.626 291.599V297.741H140.392V292.357C140.392 291.358 140.103 289.857 139.456 288.914C138.923 288.162 137.863 287.237 135.894 287.237C134.328 287.237 133.13 287.762 132.249 288.835C131.12 290.266 131.023 292.18 131.023 294.34V326.998C131.023 329.037 131.023 330.644 131.941 331.926C132.309 332.451 133.346 333.636 135.43 333.636C137.138 333.636 138.662 333.009 139.405 332.001C140.048 331.095 140.397 329.553 140.397 327.569V323.602H152.91H152.906Z" fill="black"/>
<path d="M170.867 332.971H189.573V345.161H158.354V275.707H189.288V287.897H170.867V304.197H187.14V315.913H170.867V332.971Z" fill="black"/>
<path d="M226.424 332.971V345.161H194.08V275.707H206.593V332.971H226.424Z" fill="black"/>
<path d="M243.445 332.971H262.151V345.161H230.932V275.707H261.871V287.897H243.445V304.197H259.722V315.913H243.445V332.971Z" fill="black"/>
<path d="M304.089 345.073L299.292 330.816L293.587 313.856C295.212 313.02 296.662 311.905 297.768 310.637C300.146 307.887 301.624 303.455 301.624 299.074V294.062C301.624 288.919 300.302 284.576 297.805 281.505C293.141 275.67 285.948 275.694 281.16 275.703H266.664V345.157H279.177V316.573H281.964L291.034 345.157H304.121L304.089 345.069V345.073ZM289.111 298.322C289.111 300.83 288.992 301.824 287.637 303.125C286.366 304.342 284.957 304.867 282.923 304.867H279.177V287.428H282.964C284.681 287.414 286.173 287.4 287.426 288.668C288.202 289.453 289.116 291.214 289.116 293.593V298.326L289.111 298.322Z" fill="black"/>
<path d="M378.618 275.707V287.897H367.018V345.161H354.504V287.897H342.909V275.707H378.618Z" fill="black"/>
<path d="M394.235 275.707H381.721V345.161H394.235V275.707Z" fill="black"/>
<path d="M431.233 279.456C427.983 276.386 423.636 274.76 418.651 274.76C413.666 274.76 409.319 276.386 406.069 279.456C401.12 284.153 400.712 289.574 400.712 294.73V326.152C400.712 331.309 401.12 336.725 406.078 341.426C409.319 344.488 413.675 346.114 418.656 346.114C423.636 346.114 427.988 344.488 431.242 341.426C436.191 336.725 436.599 331.309 436.599 326.152V294.73C436.599 289.574 436.191 284.153 431.233 279.456ZM413.216 293.3C413.216 291.279 413.455 289.936 414.722 288.664C415.245 288.125 416.461 287.237 418.651 287.237C420.841 287.237 422.062 288.125 422.59 288.664C423.852 289.936 424.086 291.279 424.086 293.3V327.569C424.086 329.594 423.852 330.932 422.59 332.21C422.066 332.739 420.85 333.636 418.651 333.636C416.452 333.636 415.245 332.739 414.722 332.21C413.459 330.932 413.216 329.594 413.216 327.569V293.3Z" fill="black"/>
<path d="M480.561 275.707V345.161H468.538L455.589 310.631V345.161H443.076V275.707H455.098L468.047 310.237V275.707H480.561Z" fill="black"/>
<path d="M367.019 345.162H347.886L328.749 310.53L309.892 345.162H291.03L291.851 343.652L292.834 341.85L296.74 334.673L297.768 332.787L298.792 330.905L328.749 275.885L353.486 320.667L355.052 323.5L356.617 326.329L362.75 337.437L365.88 343.104L367.019 345.162Z" fill="#FD6051"/>
<path d="M296.432 264.471C296.179 264.573 295.918 264.67 295.665 264.768L295.647 264.066C295.913 264.196 296.17 264.327 296.432 264.471Z" fill="black"/>
<path d="M327.453 249.703L327.302 249.745C324.474 250.52 321.72 251.524 319.002 252.588C317.607 253.131 316.23 253.716 314.853 254.316C314.811 252.304 314.765 250.283 314.715 248.258C314.651 246.544 314.522 244.872 314.49 243.204C314.435 241.541 314.43 239.878 314.504 238.238C314.577 236.603 314.738 234.958 315.114 233.5C315.307 232.784 315.587 232.115 315.931 231.72C316.271 231.335 316.629 231.214 317.29 231.251C317.441 231.265 317.616 231.284 317.79 231.321C317.923 231.353 318.024 231.377 318.135 231.428C318.355 231.53 318.575 231.697 318.773 231.934C319.19 232.403 319.526 233.086 319.783 233.806C320.301 235.265 320.568 236.905 320.765 238.531C321.132 241.815 321.132 245.197 320.985 248.527V248.546C320.971 248.871 321.21 249.15 321.536 249.192C321.876 249.234 322.183 248.983 322.22 248.639C322.592 245.225 322.739 241.829 322.532 238.368C322.417 236.644 322.211 234.907 321.669 233.156C321.389 232.282 321.022 231.39 320.366 230.564C320.035 230.155 319.608 229.765 319.066 229.486C318.814 229.346 318.506 229.244 318.236 229.184C318.002 229.128 317.758 229.082 317.497 229.049C316.982 228.989 316.404 228.993 315.812 229.179C315.229 229.346 314.673 229.709 314.274 230.127C313.475 230.982 313.117 231.925 312.824 232.812C312.277 234.61 312.112 236.352 311.979 238.089C311.864 239.817 311.832 241.541 311.841 243.25C311.837 244.969 311.928 246.669 311.942 248.332L311.961 255.616C311.63 255.765 311.29 255.914 310.955 256.067C305.64 258.511 300.407 261.131 295.339 264.076L295.293 264.108C295.22 264.15 295.16 264.224 295.128 264.308C295.114 264.341 295.109 264.382 295.109 264.424C295.109 264.573 295.21 264.721 295.362 264.773C297.73 265.585 299.792 267.184 301.467 269.06C303.152 270.937 304.538 273.074 305.722 275.308C306.907 277.543 307.852 279.907 308.701 282.295C309.128 283.494 309.5 284.711 309.872 285.937L310.437 287.8C310.542 288.116 310.643 288.432 310.781 288.785C310.845 288.961 310.914 289.133 311.052 289.384C311.093 289.444 311.13 289.514 311.199 289.598C311.258 289.677 311.336 289.793 311.529 289.946C311.589 289.988 311.635 290.02 311.717 290.067C311.818 290.113 311.896 290.155 312.025 290.188C312.172 290.23 312.296 290.248 312.466 290.243C312.64 290.239 312.805 290.197 312.938 290.137C313.512 289.867 313.59 289.593 313.696 289.449C313.751 289.347 313.797 289.24 313.815 289.124L313.829 289.091C314.233 287.308 314.393 285.598 314.554 283.875C314.692 282.165 314.811 280.456 314.862 278.76C314.981 275.355 315.027 271.959 315.027 268.568C315.009 264.698 314.963 260.847 314.894 256.991C316.579 256.285 318.259 255.57 319.92 254.817C321.238 254.227 322.555 253.628 323.859 253.001C323.877 252.969 323.905 252.936 323.932 252.899C324.864 251.71 326.007 250.753 327.058 249.916L327.251 250.204C327.329 250.172 327.412 250.144 327.499 250.135C327.568 250.13 327.646 250.13 327.719 250.13C327.852 250.042 328.018 250 328.183 250.037C328.054 249.768 327.751 249.619 327.453 249.703ZM310.464 281.575C309.395 279.201 308.183 276.879 306.806 274.667C305.428 272.451 303.845 270.361 301.977 268.554C300.315 266.951 298.465 265.572 296.427 264.466C296.174 264.568 295.913 264.666 295.66 264.763L295.642 264.062C295.908 264.192 296.165 264.322 296.427 264.466C301.628 262.482 306.764 260.373 311.887 258.241C311.915 258.227 311.933 258.222 311.961 258.209L311.988 268.568C311.993 271.94 311.993 275.308 311.901 278.658C311.846 280.548 311.8 282.462 311.667 284.334C311.281 283.41 310.877 282.49 310.464 281.575ZM313.292 287.976C313.292 287.976 313.264 287.935 313.237 287.897C313.324 287.986 313.283 287.976 313.292 287.976Z" fill="black"/>
<path d="M346.577 246.316C345.067 246.177 343.433 246.451 342.001 247.25C340.55 248.025 339.398 249.284 338.553 250.655C338.466 250.794 338.379 250.943 338.301 251.091C338.26 250.404 338.237 249.716 338.209 249.034C338.195 248.69 337.915 248.402 337.571 248.388C337.204 248.374 336.892 248.662 336.878 249.034C336.873 249.164 336.873 249.289 336.86 249.419C336.373 249.837 335.827 250.153 335.244 250.376C334.514 250.632 333.734 250.752 332.958 250.794C332.173 250.827 331.383 250.752 330.603 250.632C329.823 250.501 329.028 250.316 328.321 250.065H328.303C328.303 250.065 328.271 250.046 328.257 250.046C328.239 250.042 328.211 250.042 328.193 250.042C328.028 250.009 327.862 250.046 327.729 250.135C327.656 250.135 327.578 250.135 327.509 250.139C327.422 250.144 327.344 250.172 327.261 250.209L327.068 249.921C326.017 250.757 324.874 251.709 323.942 252.903C323.915 252.936 323.887 252.968 323.869 253.005C323.428 253.577 323.043 254.209 322.717 254.891C322.391 255.621 322.143 256.41 322.037 257.242C321.932 258.069 321.968 258.919 322.129 259.727C322.29 260.536 322.547 261.302 322.974 262.064C323.391 262.817 324.007 263.551 324.828 264.043C325.641 264.549 326.632 264.763 327.541 264.689C328.455 264.614 329.304 264.312 330.047 263.839C330.786 263.369 331.443 262.728 331.884 261.874C332.627 260.299 332.77 258.729 332.687 257.196C332.572 255.667 332.228 254.153 331.475 252.768C331.287 252.439 331.085 252.123 330.842 251.821C331.567 251.863 332.292 251.867 333.022 251.774C333.871 251.672 334.73 251.472 335.528 251.119C335.987 250.906 336.419 250.641 336.814 250.325C336.759 251.677 336.685 253.033 336.625 254.39L336.511 256.717C336.483 256.94 336.456 257.168 336.437 257.391C336.391 257.962 336.345 258.52 336.345 259.109C336.345 259.309 336.35 259.518 336.364 259.727V259.857C336.41 260.503 336.956 261 337.594 260.968C338.241 260.935 338.737 260.382 338.705 259.727V259.695C338.76 258.394 338.944 256.963 339.237 255.644C339.531 254.311 339.953 253.01 340.569 251.853C341.179 250.687 341.992 249.675 343.011 248.89C344.021 248.081 345.274 247.566 346.637 247.161H346.651C346.811 247.115 346.935 246.971 346.949 246.79C346.968 246.553 346.802 246.353 346.568 246.325L346.577 246.316ZM329.823 260.745C329.391 261.52 328.321 262.152 327.39 262.166C326.453 262.208 325.7 261.743 325.182 260.791C324.92 260.331 324.75 259.755 324.617 259.198C324.498 258.64 324.466 258.074 324.511 257.507C324.589 256.369 325.035 255.231 325.687 254.134C326.21 253.233 326.862 252.397 327.555 251.482C328.611 251.556 329.405 252.443 329.882 253.563C330.346 254.701 330.566 255.992 330.566 257.261C330.562 258.515 330.341 259.811 329.823 260.749V260.745Z" fill="black"/>
<path d="M362.258 246.562C362.258 246.562 362.253 246.59 362.253 246.595V246.562H362.258Z" fill="black"/>
<path d="M389.231 250.743C389.098 250.608 388.887 250.613 388.758 250.757H388.744C387.771 251.802 386.83 252.866 385.866 253.828C385.375 254.306 384.888 254.775 384.384 255.165C383.892 255.542 383.351 255.904 382.993 255.955C382.814 256.299 381.79 255.008 381.358 253.907C380.858 252.764 380.601 251.444 380.468 250.097C380.404 249.498 380.367 248.894 380.353 248.286C380.766 247.045 381.157 245.8 381.538 244.551C382.368 241.791 383.135 239.018 383.791 236.203C384.113 234.791 384.429 233.397 384.604 231.883C384.622 231.692 384.636 231.492 384.636 231.279C384.636 231.163 384.636 231.056 384.622 230.916C384.608 230.828 384.618 230.786 384.576 230.661C384.563 230.605 384.544 230.554 384.521 230.498C384.498 230.442 384.42 230.303 384.347 230.224C384.301 230.15 384.113 230.01 383.906 229.955C383.686 229.894 383.594 229.927 383.443 229.959C383.383 229.973 383.296 230.015 383.268 230.029L383.208 230.071L383.089 230.15C383.016 230.206 382.924 230.28 382.882 230.326L382.763 230.475C382.584 230.675 382.501 230.837 382.378 231.019C381.978 231.706 381.694 232.384 381.418 233.072C380.349 235.813 379.568 238.614 378.985 241.48C378.467 244.105 378.141 246.785 378.242 249.531C377.934 250.413 377.617 251.287 377.282 252.155C376.768 253.475 376.231 254.78 375.621 256.034C375.313 256.652 374.982 257.261 374.624 257.799C374.445 258.069 374.253 258.324 374.064 258.501C373.977 258.589 373.876 258.654 373.844 258.668C373.839 258.668 373.839 258.673 373.839 258.673H373.821C373.775 258.673 373.734 258.677 373.693 258.687C373.413 258.687 373.027 258.399 372.719 257.864C372.412 257.353 372.173 256.726 371.98 256.081C371.595 254.789 371.356 253.4 371.182 252.007C370.989 250.46 370.874 248.89 370.814 247.315C371.54 244.797 372.192 242.26 372.696 239.668C372.834 238.953 372.963 238.233 373.055 237.494C373.146 236.765 373.243 235.998 373.16 235.172C373.128 234.786 373.087 234.405 372.995 233.992C372.949 233.783 372.903 233.574 372.802 233.337C372.756 233.22 372.687 233.081 372.595 232.937C372.54 232.858 372.467 232.775 372.398 232.696C372.27 232.593 372.201 232.514 371.994 232.445C371.806 232.37 371.609 232.366 371.402 232.403C371.223 232.445 371.09 232.519 370.975 232.593C370.897 232.654 370.796 232.742 370.741 232.802C370.686 232.863 370.635 232.932 370.589 232.993C370.438 233.22 370.337 233.439 370.259 233.634C370.098 234.033 369.993 234.4 369.901 234.777C369.543 236.259 369.387 237.713 369.277 239.171C369.171 240.625 369.125 242.075 369.111 243.519C369.107 244.644 369.116 245.772 369.157 246.906C369.093 247.129 369.024 247.357 368.96 247.579C368.134 250.288 367.229 252.996 366.1 255.542C365.806 256.169 365.508 256.787 365.168 257.353C365.003 257.628 364.824 257.892 364.65 258.087C364.645 258.092 364.636 258.106 364.622 258.115C364.604 258.074 364.576 258.036 364.553 257.981C364.448 257.758 364.365 257.456 364.296 257.154C364.158 256.527 364.076 255.853 364.025 255.17C363.832 252.415 363.979 249.545 364.204 246.748C364.246 246.316 363.998 245.893 363.58 245.74C363.107 245.559 362.575 245.768 362.364 246.218C362.212 245.935 362.038 245.652 361.831 245.382C361.551 245.02 361.221 244.658 360.775 244.379C360.33 244.105 359.752 243.919 359.164 243.97C358.577 244.012 358.053 244.244 357.626 244.527C357.209 244.815 356.841 245.145 356.534 245.489C355.914 246.191 355.437 246.943 355.019 247.71C354.588 248.471 354.252 249.256 353.922 250.046C353.601 250.827 353.298 251.635 353.064 252.485C352.825 253.326 352.632 254.19 352.545 255.077C352.453 255.964 352.425 256.88 352.586 257.818C352.664 258.287 352.779 258.761 352.985 259.24C353.183 259.704 353.463 260.196 353.945 260.591C354.408 260.991 355.115 261.209 355.712 261.116C356.318 261.037 356.791 260.773 357.195 260.489C357.98 259.895 358.517 259.174 358.99 258.441C359.449 257.702 359.862 256.954 360.202 256.174C360.918 254.627 361.39 253.029 362.01 251.5C362.015 251.482 362.024 251.458 362.038 251.44C362.019 252.727 362.051 254.018 362.152 255.323C362.217 256.071 362.313 256.819 362.492 257.586C362.593 257.985 362.689 258.375 362.896 258.798C362.942 258.9 363.011 259.007 363.075 259.123C363.135 259.23 363.213 259.337 363.314 259.453L363.461 259.62C363.525 259.676 363.598 259.727 363.667 259.783C363.796 259.89 363.975 259.973 364.168 260.034L364.301 260.08C364.365 260.094 364.438 260.099 364.507 260.108C364.654 260.122 364.769 260.104 364.893 260.08C365.118 260.025 365.292 259.941 365.425 259.853C365.692 259.676 365.871 259.495 366.018 259.323C366.316 258.979 366.532 258.65 366.729 258.315C367.124 257.641 367.441 256.977 367.739 256.304C368.405 254.761 368.978 253.205 369.497 251.644C369.515 251.839 369.538 252.03 369.561 252.225C369.749 253.679 369.993 255.128 370.424 256.573C370.649 257.302 370.915 258.027 371.342 258.742C371.563 259.091 371.82 259.449 372.201 259.764C372.573 260.076 373.105 260.331 373.665 260.336C373.803 260.331 373.936 260.317 374.069 260.303C374.188 260.299 374.422 260.224 374.542 260.155C374.836 260.02 375.015 259.853 375.18 259.695C375.506 259.37 375.74 259.054 375.965 258.724C376.392 258.078 376.745 257.423 377.071 256.764C377.682 255.505 378.2 254.241 378.701 252.959C378.848 253.586 379.054 254.213 379.311 254.822C379.619 255.56 380.064 256.276 380.587 256.921L381.019 257.386L381.124 257.502C381.179 257.549 381.244 257.604 381.299 257.651C381.418 257.744 381.538 257.841 381.689 257.906C382.267 258.231 382.974 258.241 383.479 258.101C383.998 257.962 384.411 257.739 384.765 257.502C385.118 257.265 385.435 257.005 385.715 256.726C386.279 256.183 386.766 255.598 387.197 254.989C388.06 253.776 388.781 252.499 389.318 251.119C389.364 250.989 389.337 250.845 389.231 250.748V250.743ZM382.511 234.758C382.433 235.12 382.345 235.483 382.263 235.84C381.896 237.401 381.492 238.962 381.051 240.514C381.404 238.563 381.877 236.621 382.506 234.758H382.511ZM370.938 239.301C371.044 237.95 371.191 236.593 371.489 235.334C371.549 235.929 371.471 236.588 371.384 237.267C371.292 237.945 371.172 238.642 371.039 239.334C370.993 239.575 370.948 239.812 370.892 240.054C370.906 239.803 370.92 239.548 370.938 239.301ZM362.249 246.562H362.253C362.253 246.562 362.249 246.59 362.249 246.595V246.562ZM361.014 251.119C360.463 252.68 359.917 254.25 359.178 255.663C358.811 256.378 358.407 257.061 357.929 257.683C357.456 258.296 356.919 258.854 356.355 259.198C356.07 259.36 355.79 259.458 355.57 259.458C355.35 259.458 355.226 259.388 355.079 259.244C354.771 258.947 354.565 258.25 354.519 257.563C354.431 256.136 354.716 254.589 355.152 253.094C355.611 251.626 356.176 250.056 356.851 248.671C357.172 247.956 357.557 247.291 357.975 246.711C358.388 246.125 358.898 245.68 359.352 245.582C359.793 245.443 360.39 245.703 360.936 246.209C361.34 246.581 361.721 247.05 362.061 247.542C361.781 248.759 361.413 249.944 361.023 251.124L361.014 251.119Z" fill="black"/>
<path d="M79.3262 358.972H83.9165C84.4169 358.972 84.8943 359.019 85.3579 359.116C85.8215 359.242 86.2897 359.502 86.7671 359.897C87.1665 360.194 87.4878 360.617 87.7403 361.165C88.002 361.699 88.1305 362.326 88.1305 363.051C88.1305 364.031 87.8 364.923 87.139 365.727C86.4596 366.572 85.4681 367.009 84.1644 367.032H81.2449V372.198H79.3262V358.968V358.972ZM81.2404 365.151H84.0864C84.7979 365.137 85.335 364.909 85.6976 364.459C86.0419 364.022 86.2117 363.534 86.2117 363C86.2117 362.554 86.1429 362.182 86.0006 361.88C85.8537 361.606 85.6517 361.393 85.39 361.235C84.9953 360.975 84.5362 360.849 84.0129 360.863H81.2358V365.155L81.2404 365.151Z" fill="black"/>
<path d="M92.9414 367.483C92.9414 366.489 93.0194 365.727 93.1755 365.193C93.3362 364.673 93.5886 364.231 93.9237 363.874C94.1716 363.562 94.5205 363.279 94.9658 363.033C95.4064 362.796 95.971 362.675 96.6596 362.661C97.3711 362.675 97.9495 362.796 98.3902 363.033C98.8263 363.279 99.1613 363.562 99.3955 363.878C99.7535 364.236 100.006 364.673 100.157 365.193C100.3 365.727 100.373 366.489 100.373 367.478C100.373 368.468 100.3 369.225 100.157 369.745C100.006 370.266 99.7535 370.716 99.3955 371.097C99.2807 371.237 99.1384 371.371 98.9685 371.506C98.8171 371.659 98.6243 371.789 98.3856 371.896C97.9449 372.156 97.3711 372.291 96.6596 372.305C95.971 372.291 95.4064 372.156 94.9658 371.896C94.5205 371.659 94.1716 371.395 93.9237 371.097C93.5886 370.716 93.3408 370.266 93.1755 369.745C93.0194 369.225 92.9414 368.468 92.9414 367.478V367.483ZM98.56 367.502C98.56 366.828 98.5325 366.336 98.4728 366.029C98.4131 365.732 98.2938 365.472 98.1147 365.244C97.9816 365.03 97.7842 364.863 97.5226 364.742C97.2747 364.617 96.9809 364.552 96.6504 364.552C96.3429 364.552 96.0583 364.617 95.7966 364.742C95.5487 364.863 95.3422 365.03 95.1861 365.244C95.03 365.467 94.9153 365.732 94.8464 366.029C94.7776 366.34 94.7408 366.823 94.7408 367.488C94.7408 368.152 94.7776 368.621 94.8464 368.928C94.9153 369.239 95.03 369.508 95.1861 369.745C95.3422 369.927 95.5441 370.089 95.7966 370.229C96.0583 370.363 96.3429 370.428 96.6504 370.428C96.9809 370.428 97.2701 370.363 97.5226 370.229C97.7842 370.089 97.9816 369.927 98.1147 369.745C98.2938 369.508 98.4131 369.234 98.4728 368.928C98.5325 368.626 98.56 368.152 98.56 367.506V367.502Z" fill="black"/>
<path d="M111.5 365.602H111.463L109.581 372.199H107.984L105.101 362.782H107.02L108.746 369.388H108.783L110.83 362.782H112.143L114.19 369.388H114.227L115.948 362.782H117.867L114.993 372.199H113.387L111.505 365.602H111.5Z" fill="black"/>
<path d="M124.532 368.208C124.532 368.965 124.739 369.541 125.157 369.931C125.542 370.331 126.056 370.531 126.685 370.531C127.42 370.531 128.081 370.224 128.659 369.616L129.972 370.786C129.054 371.813 127.97 372.324 126.726 372.31C126.254 372.31 125.79 372.236 125.336 372.092C125.111 372.013 124.89 371.906 124.675 371.776C124.45 371.66 124.238 371.52 124.041 371.348C123.66 371 123.348 370.508 123.114 369.88C122.852 369.276 122.724 368.487 122.724 367.52C122.724 366.554 122.838 365.816 123.063 365.198C123.288 364.571 123.577 364.074 123.931 363.711C124.289 363.344 124.693 363.075 125.138 362.912C125.579 362.75 126.01 362.666 126.442 362.666C127.47 362.68 128.342 363.033 129.054 363.73C129.779 364.436 130.146 365.411 130.155 366.652V368.213H124.532V368.208ZM128.347 366.647C128.324 365.913 128.136 365.356 127.782 364.979C127.433 364.622 126.988 364.441 126.442 364.441C125.896 364.441 125.45 364.622 125.101 364.979C124.757 365.356 124.569 365.913 124.537 366.647H128.347Z" fill="black"/>
<path d="M136.026 362.782H137.835V363.781H137.872C138.468 363.038 139.249 362.666 140.217 362.666C140.943 362.68 141.572 362.917 142.113 363.391L140.791 365.026C140.41 364.71 140.011 364.552 139.602 364.552C139.139 364.552 138.739 364.71 138.413 365.026C138.042 365.337 137.853 365.834 137.84 366.526V372.203H136.031V362.787L136.026 362.782Z" fill="black"/>
<path d="M147.874 368.208C147.874 368.965 148.08 369.541 148.498 369.931C148.883 370.331 149.398 370.531 150.026 370.531C150.761 370.531 151.422 370.224 152 369.616L153.313 370.786C152.395 371.813 151.312 372.324 150.068 372.31C149.595 372.31 149.131 372.236 148.677 372.092C148.452 372.013 148.232 371.906 148.016 371.776C147.791 371.66 147.58 371.52 147.382 371.348C147.001 371 146.689 370.508 146.455 369.88C146.193 369.276 146.065 368.487 146.065 367.52C146.065 366.554 146.18 365.816 146.405 365.198C146.63 364.571 146.919 364.074 147.272 363.711C147.63 363.344 148.034 363.075 148.479 362.912C148.92 362.75 149.352 362.666 149.783 362.666C150.811 362.68 151.684 363.033 152.395 363.73C153.12 364.436 153.488 365.411 153.497 366.652V368.213H147.874V368.208ZM151.684 366.647C151.661 365.913 151.472 365.356 151.119 364.979C150.77 364.622 150.325 364.441 149.779 364.441C149.232 364.441 148.787 364.622 148.438 364.979C148.094 365.356 147.906 365.913 147.874 366.647H151.684Z" fill="black"/>
<path d="M164.753 371.218C164.156 371.924 163.38 372.286 162.421 372.31C161.879 372.296 161.411 372.18 161.025 371.957C160.621 371.738 160.282 371.45 160.011 371.083C159.763 370.786 159.598 370.386 159.515 369.875C159.419 369.392 159.368 368.593 159.368 367.478C159.368 366.364 159.419 365.541 159.515 365.063C159.598 364.58 159.763 364.189 160.011 363.892C160.52 363.102 161.324 362.694 162.421 362.666C162.884 362.666 163.311 362.763 163.706 362.963C164.069 363.172 164.422 363.446 164.757 363.776V358.973H166.566V372.203H164.757V371.218H164.753ZM162.972 364.552C162.545 364.552 162.214 364.626 161.989 364.779C161.741 364.942 161.558 365.17 161.443 365.453C161.333 365.736 161.259 366.048 161.227 366.382C161.191 366.74 161.177 367.107 161.177 367.483C161.177 367.859 161.195 368.189 161.227 368.528C161.264 368.886 161.333 369.207 161.443 369.495C161.558 369.769 161.741 369.992 161.989 370.168C162.214 370.34 162.54 370.424 162.972 370.424C163.403 370.424 163.738 370.331 163.986 370.15C164.234 369.973 164.404 369.741 164.5 369.457C164.615 369.174 164.693 368.853 164.734 368.5C164.748 368.152 164.753 367.813 164.753 367.478C164.753 367.116 164.748 366.763 164.734 366.433C164.693 366.099 164.615 365.792 164.5 365.504C164.408 365.221 164.239 364.988 163.986 364.812C163.738 364.635 163.399 364.547 162.972 364.547V364.552Z" fill="black"/>
<path d="M180.641 358.973H182.449V363.781C182.78 363.446 183.142 363.177 183.532 362.963C183.895 362.763 184.313 362.666 184.772 362.666C185.878 362.698 186.686 363.107 187.196 363.901C187.443 364.199 187.613 364.589 187.705 365.072C187.792 365.551 187.834 366.354 187.834 367.488C187.834 368.621 187.792 369.397 187.705 369.885C187.613 370.391 187.443 370.795 187.191 371.093C186.943 371.455 186.617 371.748 186.209 371.966C185.809 372.189 185.327 372.31 184.767 372.319C183.817 372.296 183.041 371.933 182.44 371.227V372.212H180.631V358.982L180.641 358.973ZM184.235 364.552C183.831 364.552 183.51 364.64 183.271 364.817C183.023 364.993 182.839 365.225 182.725 365.509C182.614 365.792 182.541 366.103 182.509 366.438C182.472 366.772 182.458 367.121 182.458 367.483C182.458 367.818 182.477 368.157 182.509 368.505C182.546 368.858 182.614 369.174 182.725 369.462C182.839 369.745 183.023 369.978 183.271 370.154C183.51 370.335 183.831 370.428 184.235 370.428C184.662 370.428 185.001 370.345 185.249 370.173C185.497 369.996 185.676 369.773 185.777 369.499C185.892 369.216 185.97 368.891 186.011 368.533C186.025 368.194 186.03 367.845 186.03 367.488C186.03 367.111 186.025 366.744 186.011 366.387C185.97 366.052 185.892 365.746 185.777 365.458C185.672 365.174 185.497 364.947 185.249 364.784C185.001 364.631 184.662 364.556 184.235 364.556V364.552Z" fill="black"/>
<path d="M192.543 362.782H194.462L196.596 369.379H196.633L198.758 362.782H200.686L196.807 374.149C196.56 374.855 196.215 375.348 195.775 375.617C195.329 375.877 194.824 376.008 194.264 376.008H193.668V374.228H194.196C194.434 374.228 194.655 374.163 194.857 374.029C195.058 373.889 195.201 373.685 195.283 373.411L195.779 371.827L192.552 362.777L192.543 362.782Z" fill="black"/>
<path d="M212.585 358.973H214.614L217.483 369.049H217.519L220.397 358.973H222.426L218.245 372.203H216.753L212.58 358.973H212.585Z" fill="black"/>
<path d="M227.347 358.973H229.155V360.859H227.347V358.973ZM227.347 362.782H229.155V372.198H227.347V362.782Z" fill="black"/>
<path d="M236.73 368.208C236.73 368.965 236.936 369.541 237.354 369.931C237.739 370.331 238.254 370.531 238.882 370.531C239.617 370.531 240.278 370.224 240.856 369.616L242.169 370.786C241.251 371.813 240.168 372.324 238.924 372.31C238.451 372.31 237.987 372.236 237.533 372.092C237.308 372.013 237.088 371.906 236.872 371.776C236.647 371.66 236.436 371.52 236.238 371.348C235.857 371 235.545 370.508 235.311 369.88C235.049 369.276 234.921 368.487 234.921 367.52C234.921 366.554 235.036 365.816 235.261 365.198C235.486 364.571 235.775 364.074 236.128 363.711C236.486 363.344 236.89 363.075 237.335 362.912C237.776 362.75 238.208 362.666 238.639 362.666C239.667 362.68 240.54 363.033 241.251 363.73C241.976 364.436 242.344 365.411 242.353 366.652V368.213H236.73V368.208ZM240.539 366.647C240.517 365.913 240.328 365.356 239.975 364.979C239.626 364.622 239.181 364.441 238.634 364.441C238.088 364.441 237.643 364.622 237.294 364.979C236.95 365.356 236.762 365.913 236.73 366.647H240.539Z" fill="black"/>
<path d="M253.484 365.602H253.447L251.565 372.199H249.968L247.085 362.782H249.004L250.73 369.388H250.766L252.814 362.782H254.127L256.174 369.388H256.211L257.932 362.782H259.851L256.977 372.199H255.371L253.489 365.602H253.484Z" fill="black"/>
<path d="M265.47 368.993C266.48 369.861 267.678 370.298 269.069 370.312C270.712 370.289 271.547 369.671 271.57 368.468C271.584 367.483 271.033 366.888 269.918 366.689C269.408 366.614 268.848 366.535 268.242 366.442C267.154 366.257 266.323 365.834 265.759 365.179C265.176 364.505 264.882 363.688 264.882 362.726C264.882 361.569 265.249 360.636 265.984 359.93C266.695 359.228 267.705 358.87 269.013 358.856C270.588 358.894 271.956 359.349 273.117 360.222L272.048 361.871C271.097 361.216 270.051 360.877 268.912 360.854C268.32 360.854 267.829 361.007 267.434 361.319C267.021 361.639 266.81 362.118 266.801 362.754C266.801 363.135 266.943 363.479 267.228 363.79C267.512 364.106 267.967 364.324 268.591 364.445C268.94 364.505 269.413 364.575 270.014 364.654C271.203 364.826 272.08 365.267 272.644 365.987C273.204 366.693 273.489 367.52 273.489 368.459C273.425 370.99 271.942 372.272 269.046 372.31C267.173 372.31 265.561 371.706 264.212 370.503L265.47 368.993Z" fill="black"/>
<path d="M278.911 367.483C278.911 366.489 278.989 365.727 279.145 365.193C279.306 364.673 279.558 364.231 279.893 363.874C280.141 363.562 280.49 363.279 280.935 363.033C281.376 362.796 281.941 362.675 282.629 362.661C283.341 362.675 283.919 362.796 284.36 363.033C284.796 363.279 285.131 363.562 285.365 363.878C285.723 364.236 285.976 364.673 286.127 365.193C286.269 365.727 286.343 366.489 286.343 367.478C286.343 368.468 286.269 369.225 286.127 369.745C285.976 370.266 285.723 370.716 285.365 371.097C285.25 371.237 285.108 371.371 284.938 371.506C284.787 371.659 284.594 371.789 284.355 371.896C283.915 372.156 283.341 372.291 282.629 372.305C281.941 372.291 281.376 372.156 280.935 371.896C280.49 371.659 280.141 371.395 279.893 371.097C279.558 370.716 279.31 370.266 279.145 369.745C278.989 369.225 278.911 368.468 278.911 367.478V367.483ZM284.534 367.502C284.534 366.828 284.507 366.336 284.447 366.029C284.387 365.732 284.268 365.472 284.089 365.244C283.956 365.03 283.759 364.863 283.497 364.742C283.249 364.617 282.955 364.552 282.625 364.552C282.317 364.552 282.033 364.617 281.771 364.742C281.523 364.863 281.316 365.03 281.16 365.244C281.004 365.467 280.89 365.732 280.821 366.029C280.752 366.34 280.715 366.823 280.715 367.488C280.715 368.152 280.752 368.621 280.821 368.928C280.89 369.239 281.004 369.508 281.16 369.745C281.316 369.927 281.518 370.089 281.771 370.229C282.033 370.363 282.317 370.428 282.625 370.428C282.955 370.428 283.244 370.363 283.497 370.229C283.759 370.089 283.956 369.927 284.089 369.745C284.268 369.508 284.387 369.234 284.447 368.928C284.507 368.626 284.534 368.152 284.534 367.506V367.502Z" fill="black"/>
<path d="M292.214 362.782H294.022V363.781H294.059C294.656 363.038 295.436 362.666 296.4 362.666C297.144 362.666 297.828 362.94 298.448 363.493C299.058 364.05 299.379 364.868 299.412 365.941V372.203H297.603V366.587C297.603 365.927 297.433 365.425 297.098 365.077C296.768 364.724 296.341 364.552 295.822 364.552C295.303 364.552 294.872 364.729 294.537 365.077C294.192 365.421 294.022 365.927 294.022 366.587V372.203H292.214V362.787V362.782Z" fill="black"/>
<path d="M305.801 358.973H307.609V360.859H305.801V358.973ZM305.801 362.782H307.609V372.198H305.801V362.782Z" fill="black"/>
<path d="M320.458 370.683C320.064 371.153 319.6 371.534 319.067 371.831C318.535 372.137 317.92 372.295 317.218 372.309C316.153 372.309 315.221 371.933 314.417 371.176C313.587 370.419 313.155 369.197 313.137 367.501C313.16 365.792 313.587 364.551 314.422 363.78C315.225 363.023 316.162 362.651 317.227 362.665C317.924 362.679 318.544 362.828 319.077 363.116C319.609 363.413 320.073 363.808 320.468 364.301L319.132 365.541C318.673 364.905 318.062 364.575 317.3 364.547C315.758 364.524 314.977 365.504 314.954 367.497C314.977 369.476 315.758 370.451 317.3 370.419C318.062 370.405 318.677 370.08 319.132 369.434L320.472 370.679L320.458 370.683Z" fill="black"/>
<path d="M332.852 362.782H335.023L336.809 365.825L338.604 362.782H340.775L337.727 367.39L340.899 372.199H338.737L336.809 369.063L334.89 372.199H332.719L335.799 367.39L332.847 362.782H332.852Z" fill="black"/>
<path d="M361.381 366.419H356.359V372.198H354.44V358.968H356.359V364.64H361.381V358.968H363.299V372.198H361.381V366.419Z" fill="black"/>
<path d="M369.846 362.782H371.654V368.399C371.654 369.035 371.824 369.532 372.168 369.89C372.504 370.247 372.935 370.424 373.454 370.424C373.972 370.424 374.399 370.247 374.73 369.89C375.065 369.532 375.235 369.035 375.235 368.399V362.782H377.043V372.199H375.235V371.19H375.198C374.601 371.934 373.826 372.305 372.866 372.305C372.118 372.291 371.448 372.008 370.846 371.455C370.195 370.912 369.859 370.108 369.85 369.049V362.782H369.846Z" fill="black"/>
<path d="M383.644 369.322C384.383 370.126 385.333 370.53 386.499 370.53C387.023 370.53 387.45 370.423 387.78 370.214C388.111 370.005 388.276 369.708 388.276 369.327C388.276 368.988 388.179 368.751 387.982 368.621C387.78 368.481 387.509 368.407 387.174 368.393L385.572 368.249C384.81 368.175 384.195 367.91 383.718 367.45C383.231 367.004 382.983 366.377 382.969 365.573C382.983 364.607 383.309 363.878 383.952 363.395C384.576 362.911 385.37 362.67 386.334 362.67C386.752 362.67 387.124 362.698 387.454 362.754C387.785 362.814 388.092 362.898 388.386 363.009C388.941 363.246 389.442 363.562 389.882 363.961L388.758 365.332C388.409 365.067 388.042 364.853 387.652 364.681C387.271 364.528 386.83 364.454 386.33 364.454C385.76 364.454 385.366 364.561 385.136 364.77C384.897 364.983 384.778 365.253 384.778 365.587C384.764 365.801 384.856 365.982 385.049 366.14C385.223 366.317 385.531 366.428 385.972 366.475L387.468 366.591C388.409 366.665 389.088 366.958 389.506 367.483C389.896 367.989 390.089 368.635 390.089 369.42C390.075 370.335 389.722 371.041 389.02 371.538C388.326 372.044 387.436 372.309 386.353 372.318C384.884 372.318 383.557 371.756 382.382 370.632L383.644 369.336V369.322Z" fill="black"/>
<path d="M395.974 359.916H397.782V362.782H399.104V364.231H397.782V369.722C397.769 370.201 397.984 370.433 398.425 370.419H399.104V372.198H398.159C397.525 372.198 397.002 371.994 396.598 371.58C396.18 371.19 395.974 370.619 395.974 369.876V364.227H395.065V362.777H395.974V359.911V359.916Z" fill="black"/>
<path d="M404.641 358.973H406.449V369.778C406.449 370.205 406.674 370.424 407.129 370.424H407.757V372.203H406.95C406.289 372.203 405.747 372.031 405.32 371.687C404.87 371.339 404.645 370.749 404.645 369.927V358.977L404.641 358.973Z" fill="black"/>
<path d="M414.409 368.208C414.409 368.965 414.615 369.541 415.033 369.931C415.419 370.331 415.933 370.531 416.562 370.531C417.296 370.531 417.957 370.224 418.535 369.616L419.848 370.786C418.93 371.813 417.847 372.324 416.603 372.31C416.13 372.31 415.666 372.236 415.212 372.092C414.987 372.013 414.767 371.906 414.551 371.776C414.326 371.66 414.115 371.52 413.918 371.348C413.537 371 413.224 370.508 412.99 369.88C412.729 369.276 412.6 368.487 412.6 367.52C412.6 366.554 412.715 365.816 412.94 365.198C413.165 364.571 413.454 364.074 413.807 363.711C414.165 363.344 414.569 363.075 415.015 362.912C415.455 362.75 415.887 362.666 416.318 362.666C417.347 362.68 418.219 363.033 418.93 363.73C419.655 364.436 420.023 365.411 420.032 366.652V368.213H414.409V368.208ZM418.219 366.647C418.196 365.913 418.008 365.356 417.654 364.979C417.305 364.622 416.86 364.441 416.314 364.441C415.767 364.441 415.322 364.622 414.973 364.979C414.629 365.356 414.441 365.913 414.409 366.647H418.219Z" fill="black"/>
<path d="M434.138 358.972H442.226V360.858H436.056V364.77H441.326V366.544H436.056V372.198H434.138V358.968V358.972Z" fill="black"/>
<path d="M447.51 362.782H449.318V368.399C449.318 369.035 449.488 369.532 449.832 369.89C450.168 370.247 450.599 370.424 451.118 370.424C451.636 370.424 452.063 370.247 452.394 369.89C452.729 369.532 452.899 369.035 452.899 368.399V362.782H454.707V372.199H452.899V371.19H452.862C452.265 371.934 451.49 372.305 450.53 372.305C449.782 372.291 449.112 372.008 448.51 371.455C447.859 370.912 447.524 370.108 447.514 369.049V362.782H447.51Z" fill="black"/>
<path d="M461.042 362.782H462.851V363.781H462.888C463.485 363.038 464.265 362.666 465.229 362.666C465.973 362.666 466.657 362.94 467.276 363.493C467.887 364.05 468.208 364.868 468.24 365.941V372.203H466.432V366.587C466.432 365.927 466.262 365.425 465.927 365.077C465.596 364.724 465.169 364.552 464.651 364.552C464.132 364.552 463.7 364.729 463.365 365.077C463.021 365.421 462.851 365.927 462.851 366.587V372.203H461.042V362.787V362.782Z" fill="black"/>
<path d="M479.969 371.218C479.372 371.924 478.596 372.286 477.637 372.31C477.095 372.296 476.627 372.18 476.242 371.957C475.838 371.738 475.498 371.45 475.227 371.083C474.979 370.786 474.814 370.386 474.731 369.875C474.635 369.392 474.584 368.593 474.584 367.478C474.584 366.364 474.635 365.541 474.731 365.063C474.814 364.58 474.979 364.189 475.227 363.892C475.737 363.102 476.54 362.694 477.637 362.666C478.101 362.666 478.528 362.763 478.922 362.963C479.285 363.172 479.638 363.446 479.974 363.776V358.973H481.782V372.203H479.974V371.218H479.969ZM478.188 364.552C477.761 364.552 477.431 364.626 477.206 364.779C476.958 364.942 476.774 365.17 476.659 365.453C476.549 365.736 476.476 366.048 476.444 366.382C476.407 366.74 476.393 367.107 476.393 367.483C476.393 367.859 476.411 368.189 476.444 368.528C476.48 368.886 476.549 369.207 476.659 369.495C476.774 369.769 476.958 369.992 477.206 370.168C477.431 370.34 477.756 370.424 478.188 370.424C478.619 370.424 478.954 370.331 479.202 370.15C479.45 369.973 479.62 369.741 479.717 369.457C479.831 369.174 479.909 368.853 479.951 368.5C479.964 368.152 479.969 367.813 479.969 367.478C479.969 367.116 479.964 366.763 479.951 366.433C479.909 366.099 479.831 365.792 479.717 365.504C479.625 365.221 479.455 364.988 479.202 364.812C478.954 364.635 478.615 364.547 478.188 364.547V364.552Z" fill="black"/>
</g>
<defs>
<clipPath id="clip0_17030_1267">
<rect width="484" height="147" fill="white" transform="translate(39 229.008)"/>
</clipPath>
</defs>
</svg>
