<svg xmlns="http://www.w3.org/2000/svg" width="675.939" height="539.816" viewBox="0 0 675.939 539.816">
  <g id="Group_31729" data-name="Group 31729" transform="translate(-968.146 -9993.652)">
    <rect id="Rectangle_643" data-name="Rectangle 643" width="150.565" height="150.565" transform="translate(1491.443 10187.881)" fill="#404555"/>
    <rect id="Rectangle_644" data-name="Rectangle 644" width="150.565" height="150.565" transform="translate(1317.059 10187.986)" fill="#f0f4f7"/>
    <rect id="Rectangle_574" data-name="Rectangle 574" width="150.565" height="149.635" transform="translate(1141.855 9994.689)" fill="#ffc200"/>
    <rect id="Rectangle_575" data-name="Rectangle 575" width="150.565" height="150.565" transform="translate(1490.314 9993.652)" fill="#1e2782"/>
    <rect id="Rectangle_582" data-name="Rectangle 582" width="150.565" height="150.565" transform="translate(1316.914 9993.705)" fill="#fd6051"/>
    <rect id="Rectangle_579" data-name="Rectangle 579" width="150.565" height="150.565" transform="translate(968.289 10187.986)" fill="#fd6051"/>
    <rect id="Rectangle_645" data-name="Rectangle 645" width="150.565" height="150.565" transform="translate(970.367 10382.559)" fill="#404555"/>
    <rect id="Rectangle_672" data-name="Rectangle 672" width="150.565" height="150.565" transform="translate(1319.136 10382.559)" fill="#6f59d8"/>
    <path id="Path_4205" data-name="Path 4205" d="M0,0H150.565V150.564H0Z" transform="translate(1142.673 10187.986)" fill="#ffc200"/>
    <path id="Path_4246" data-name="Path 4246" d="M0,0H150.565V150.564H0Z" transform="translate(1144.751 10382.559)" fill="#ffc200"/>
    <path id="Path_4467" data-name="Path 4467" d="M0,0H150.565V150.564H0Z" transform="translate(1493.52 10382.559)" fill="#fd6051"/>
    <path id="Path_4203" data-name="Path 4203" d="M0,0H150.565V150.564H0Z" transform="translate(968.146 9994.018)" fill="#1e2782"/>
    <path id="Path_4244" data-name="Path 4244" d="M1706.667,684.961l31.607,17.551,37.321,20.723-37.321,20.724-31.607,17.551v36.961l67.746-37.618,67.746-37.618-67.746-37.618L1706.667,648Z" transform="translate(-215.367 9540.08)" fill="#f0f4f7"/>
    <path id="Path_4245" data-name="Path 4245" d="M1706.667,684.961l31.607,17.551,37.321,20.723-37.321,20.724-31.607,17.551v36.961l67.746-37.618,67.746-37.618-67.746-37.618L1706.667,648Z" transform="translate(-389.752 9540.08)" fill="#fd6051"/>
    <path id="Path_4192" data-name="Path 4192" d="M1706.667,684.961l31.607,17.551,37.321,20.723-37.321,20.724-31.607,17.551v36.961l67.746-37.618,67.746-37.618-67.746-37.618L1706.667,648Z" transform="translate(-564.371 9346.309)" fill="#1e2782"/>
    <path id="Path_4193" data-name="Path 4193" d="M1706.667,684.961l31.607,17.551,37.321,20.723-37.321,20.724-31.607,17.551v36.961l67.746-37.618,67.746-37.618-67.746-37.618L1706.667,648Z" transform="translate(-215.912 9345.854)" fill="#fd6051"/>
    <path id="Path_4200" data-name="Path 4200" d="M1706.667,684.961l31.607,17.551,37.321,20.723-37.321,20.724-31.607,17.551v36.961l67.746-37.618,67.746-37.618-67.746-37.618L1706.667,648Z" transform="translate(-389.312 9345.801)" fill="#1e2782"/>
    <path id="Path_4197" data-name="Path 4197" d="M1706.667,684.961l31.607,17.551,37.321,20.723-37.321,20.724-31.607,17.551v36.961l67.746-37.618,67.746-37.618-67.746-37.618L1706.667,648Z" transform="translate(-738.521 9540.426)" fill="#ffc200"/>
    <path id="Path_4248" data-name="Path 4248" d="M1706.667,684.961l31.607,17.551,37.321,20.723-37.321,20.724-31.607,17.551v36.961l67.746-37.618,67.746-37.618-67.746-37.618L1706.667,648Z" transform="translate(-736.443 9734.998)" fill="#ffc200"/>
    <path id="Path_4468" data-name="Path 4468" d="M1706.667,684.961l31.607,17.551,37.321,20.723-37.321,20.724-31.607,17.551v36.961l67.746-37.618,67.746-37.618-67.746-37.618L1706.667,648Z" transform="translate(-387.674 9734.998)" fill="#ffc200"/>
    <path id="Path_4204" data-name="Path 4204" d="M1706.667,684.961l31.607,17.551,37.321,20.723-37.321,20.724-31.607,17.551v36.961l67.746-37.618,67.746-37.618-67.746-37.618L1706.667,648Z" transform="translate(-564.137 9540.426)" fill="#fd6051"/>
    <path id="Path_4247" data-name="Path 4247" d="M1706.667,684.961l31.607,17.551,37.321,20.723-37.321,20.724-31.607,17.551v36.961l67.746-37.618,67.746-37.618-67.746-37.618L1706.667,648Z" transform="translate(-562.059 9734.998)" fill="#404555"/>
    <path id="Path_4466" data-name="Path 4466" d="M1706.667,684.961l31.607,17.551,37.321,20.723-37.321,20.724-31.607,17.551v36.961l67.746-37.618,67.746-37.618-67.746-37.618L1706.667,648Z" transform="translate(-213.29 9734.998)" fill="#6f59d8"/>
  </g>
</svg>
