<svg xmlns="http://www.w3.org/2000/svg" width="673.95" height="153.199" viewBox="0 0 673.95 153.199">
  <g id="Group_31731" data-name="Group 31731" transform="translate(-968.05 -9381.805)">
    <path id="Path_4186" data-name="Path 4186" d="M1706.667,685.632l32.18,17.869,38,21.1-38,21.1-32.18,17.869V801.2l68.975-38.3,68.975-38.3-68.975-38.3L1706.667,648Z" transform="translate(-738.617 8733.805)" fill="#fd6051"/>
    <path id="Path_4187" data-name="Path 4187" d="M0,37.632,32.18,55.5l38,21.1-38,21.1L0,115.568V153.2l68.974-38.3,68.975-38.3L68.974,38.3,0,0Z" transform="translate(1124.214 9535.004) rotate(-90)" fill="#1e2782"/>
    <path id="Path_4188" data-name="Path 4188" d="M0,37.632,32.18,55.5l38,21.1-38,21.1L0,115.568V153.2l68.975-38.3L137.95,76.6,68.975,38.3,0,0Z" transform="translate(1442.975 9535.004) rotate(180)" fill="#ffc200"/>
    <path id="Path_4189" data-name="Path 4189" d="M0,37.632,32.18,55.5l38,21.1-38,21.1L0,115.568V153.2l68.974-38.3,68.975-38.3L68.974,38.3,0,0Z" transform="translate(1642 9397.055) rotate(90)" fill="#404555"/>
  </g>
</svg>
